<svg width="36" height="36" viewBox="0 0 36 36" fill="none" xmlns="http://www.w3.org/2000/svg">
<rect width="36" height="36" rx="8" fill="#00D7F4"/>
<path d="M15.144 11.0529C16.9584 11.0529 18.6921 11.0382 20.4233 11.0665C20.749 11.0718 20.9254 11.0372 21.0273 10.7761C21.0845 10.6282 21.1976 10.4961 21.2635 10.3503C21.4039 10.0367 21.6177 9.93186 22.0253 10.043C23.4371 10.4289 24.8651 10.7782 26.2732 11.1725C26.5217 11.2417 26.769 11.4325 26.9169 11.6224C29.5939 15.0641 30.8367 18.83 30.4216 22.9524C30.3992 23.1737 30.2252 23.4526 30.0165 23.5816C28.3362 24.6208 26.4857 25.3864 24.5121 25.9485C24.1828 26.0418 23.979 26.025 23.795 25.7576C23.4446 25.248 23.0655 24.7519 22.6877 24.237C23.4172 23.935 24.0796 23.6613 24.752 23.3834C24.5494 23.0677 24.3307 23.0017 23.969 23.1317C19.9958 24.5632 16.0176 24.5558 12.0333 23.1485C11.8257 23.0751 11.551 23.1391 11.3075 23.1391L11.2577 23.3698C11.9077 23.6424 12.559 23.9161 13.3146 24.2339C12.9082 24.7844 12.513 25.3434 12.0792 25.8814C12.0134 25.9632 11.7487 25.9967 11.6095 25.959C9.56134 25.4147 7.66235 24.6125 5.9299 23.5438C5.74597 23.4295 5.59062 23.1852 5.57197 22.9901C5.18174 18.8751 6.38352 15.0998 9.05179 11.6507C9.20963 11.4462 9.47186 11.2406 9.73781 11.1651C11.1049 10.775 12.4943 10.4363 13.8664 10.0577C14.3337 9.92872 14.6021 10.0273 14.7686 10.4143C14.8668 10.6418 15.0234 10.8505 15.144 11.0529ZM13.8266 16.6959C12.5875 16.7074 11.6219 17.646 11.6331 18.8289C11.6443 20.0098 12.6335 20.9263 13.8838 20.9137C15.1104 20.9011 16.1059 19.9406 16.0959 18.7786C16.086 17.6219 15.0644 16.6833 13.8266 16.6959ZM24.3816 18.83C24.4152 17.6985 23.4508 16.7337 22.2503 16.6959C20.9714 16.6561 19.9561 17.5642 19.93 18.7755C19.9039 19.9406 20.8857 20.898 22.1198 20.9127C23.3601 20.9274 24.3468 20.0182 24.3816 18.83V18.83Z" fill="#1C1C1C"/>
</svg>
