<svg width="36" height="36" viewBox="0 0 36 36" fill="none" xmlns="http://www.w3.org/2000/svg">
<rect width="36" height="36" rx="8" fill="#00D7F4"/>
<path d="M18.0001 10.5H9.01694C8.91388 10.5 8.87506 10.6413 8.96229 10.6987L17.6645 16.4557C17.8692 16.591 18.13 16.591 18.3351 16.4557L27.0373 10.6987C27.1246 10.6413 27.0853 10.5 26.9827 10.5H18.0001Z" fill="#1C1C1C"/>
<path d="M17.4797 18.9498L7.64999 12.0418C7.54121 11.9653 7.40002 12.0538 7.40002 12.1988V23.555C7.40002 24.7078 8.2263 25.6422 9.24561 25.6422H26.7544C27.7737 25.6422 28.6 24.7078 28.6 23.555V12.1988C28.6 12.0538 28.4593 11.9653 28.35 12.0418L18.5203 18.9498C18.2018 19.1739 17.7982 19.1739 17.4797 18.9498Z" fill="#1C1C1C"/>
</svg>
