<svg width="36" height="36" viewBox="0 0 36 36" fill="none" xmlns="http://www.w3.org/2000/svg">
<rect width="36" height="36" rx="8" fill="#00D7F4"/>
<path d="M21.6578 26.4256C21.6578 24.2959 21.373 23.5092 20.3664 22.8811C23.4618 22.5645 25.3775 21.8041 26.3116 19.7655L26.3963 19.5699C26.4675 19.3927 26.5387 19.2078 26.5387 19.2078L26.6547 18.8137C26.864 18.0441 26.9772 17.1343 27 16.0566C26.9943 13.1338 25.5868 12.1003 25.3163 11.6144C25.715 9.4022 25.2494 8.39497 25.0316 8.04927C24.2335 7.76474 22.2551 8.77482 21.1765 9.48472C19.4152 8.97256 15.6948 9.02236 14.2973 9.61702C11.7216 7.78394 10.359 8.06492 10.359 8.06492C10.359 8.06492 9.47832 9.62983 10.1262 11.9281C9.27828 13.0022 8.6468 13.7612 8.6468 15.7764C8.6468 16.9102 8.78065 17.926 9.08392 18.8123L9.15511 19.0108L9.39787 19.5656L9.50182 19.7612C10.4693 21.5075 12.336 22.5937 15.4819 22.891C15.0327 23.2296 14.4931 23.8727 14.4183 24.6167C13.853 24.9802 12.7175 25.0997 11.8341 24.823C10.5967 24.4346 10.1255 21.999 8.26949 22.3462C7.86797 22.4216 7.9477 22.684 8.2944 22.9074C8.85967 23.2709 9.39147 23.7247 9.80153 24.6928C10.1169 25.4354 10.7783 26.7635 12.872 26.7635C13.3449 26.7664 13.8174 26.7331 14.2852 26.6639C14.2852 26.6639 14.3016 28.5603 14.3016 29.2958C14.3016 29.5903 14.1592 29.8115 13.9819 29.9915C16.8556 29.9915 19.2861 30 21.9425 30C21.7688 29.8151 21.6364 29.5953 21.6329 29.3292C21.6286 28.842 21.6578 28.556 21.6578 26.4256Z" fill="#1C1C1C"/>
</svg>
