<svg width="36" height="36" viewBox="0 0 36 36" fill="none" xmlns="http://www.w3.org/2000/svg">
<rect width="36" height="36" rx="8" fill="#00D7F4"/>
<path d="M12.1766 14.6416H8.46838V26.9993H12.1766V14.6416Z" fill="white"/>
<path d="M10.3202 12.6336C11.5998 12.6336 12.637 11.5963 12.637 10.3168C12.637 9.03727 11.5998 8 10.3202 8C9.04069 8 8.00342 9.03727 8.00342 10.3168C8.00342 11.5963 9.04069 12.6336 10.3202 12.6336Z" fill="white"/>
<path d="M22.2302 14.4893C20.2797 14.4893 18.7106 15.4645 18.1796 16.4246H18.1428V14.6431H14.647V26.9965H18.3595V21.0669C18.3595 18.995 19.2481 17.7337 21.1119 17.7337C22.6463 17.7337 23.303 19.1749 23.303 20.8198V27.003H27.009V20.1436C27.0047 16.4723 25.9644 14.4893 22.2302 14.4893Z" fill="white"/>
<path d="M12.1741 27.0024H8.46812V14.649H12.1741V27.0024ZM10.3211 12.6399C9.8623 12.6403 9.41366 12.5046 9.03197 12.25C8.65029 11.9953 8.35272 11.6332 8.17694 11.2094C8.00115 10.7855 7.95504 10.3191 8.04445 9.86905C8.13386 9.41901 8.35476 9.00561 8.67921 8.68117C9.00365 8.35672 9.41706 8.13582 9.8671 8.04641C10.3171 7.957 10.7836 8.0031 11.2074 8.17889C11.6312 8.35468 11.9934 8.65224 12.248 9.03392C12.5027 9.41561 12.6384 9.86426 12.6379 10.3231C12.6379 10.9375 12.3939 11.5268 11.9594 11.9613C11.5249 12.3958 10.9356 12.6399 10.3211 12.6399V12.6399ZM27.0091 27.0067H23.303V20.8192C23.303 19.1742 22.6529 17.733 21.1119 17.733C19.2481 17.733 18.3595 18.9943 18.3595 21.0662V27.0024H14.647V14.649H18.1428V16.4304H18.1818C18.7128 15.4703 20.2862 14.4951 22.2324 14.4951C25.9666 14.4951 27.0004 16.4781 27.0004 20.1495L27.0091 27.0067Z" fill="#1C1C1C"/>
</svg>
