<svg width="36" height="36" viewBox="0 0 36 36" fill="none" xmlns="http://www.w3.org/2000/svg">
<rect width="36" height="36" rx="8" fill="#00D7F4"/>
<path d="M14.2287 27C22.9104 27 27.6583 20.0736 27.6583 14.0672C27.6583 13.8718 27.6543 13.6777 27.6462 13.485C28.5693 12.8414 29.3663 12.045 30 11.1328C29.1387 11.5003 28.225 11.741 27.2895 11.847C28.2753 11.2797 29.0131 10.3864 29.3652 9.3338C28.4387 9.86265 27.4252 10.2354 26.3685 10.4361C25.9267 9.98241 25.3929 9.62085 24.8002 9.37383C24.2074 9.1268 23.5683 8.99957 22.9225 9C21.6705 9 20.4698 9.4788 19.5844 10.3311C18.699 11.1834 18.2013 12.3395 18.2007 13.5451C18.2003 13.894 18.2416 14.2417 18.3237 14.5815C16.4466 14.4901 14.6104 14.0198 12.9343 13.201C11.2581 12.3822 9.77939 11.2333 8.59405 9.82868C8.17494 10.5222 7.9545 11.3105 7.95522 12.1129C7.95463 12.8616 8.1462 13.5989 8.51291 14.2591C8.87962 14.9194 9.41008 15.4821 10.0571 15.8973C9.30733 15.8758 8.57393 15.6807 7.91895 15.3286C7.91895 15.348 7.91895 15.3674 7.91895 15.3868C7.91775 16.4375 8.29425 17.4562 8.98452 18.2699C9.67479 19.0835 10.6362 19.642 11.7056 19.8505C11.3004 19.9571 10.8822 20.0106 10.4622 20.0096C10.1657 20.0065 9.87019 19.9766 9.57951 19.9203C9.88046 20.8239 10.4674 21.6142 11.2581 22.1804C12.0488 22.7466 13.0037 23.0604 13.9889 23.0779C12.3161 24.3397 10.2514 25.0232 8.12652 25.0186C7.75002 25.0188 7.37385 24.9975 7 24.9545C9.15812 26.2896 11.6697 26.9984 14.2347 26.9961" fill="#1C1C1C"/>
</svg>
