<svg width="36" height="36" viewBox="0 0 36 36" fill="none" xmlns="http://www.w3.org/2000/svg">
<rect width="36" height="36" rx="8" fill="#00D7F4"/>
<path d="M6.34566 18.3734C8.69805 17.1485 11.3255 16.1265 13.7799 15.0994C18.0016 13.4167 22.2407 11.7632 26.5228 10.2225C27.3561 9.96002 28.8524 9.70388 29 10.8705C28.9195 12.5215 28.5894 14.1636 28.3626 15.8044C27.7869 19.4145 27.1213 23.0119 26.4732 26.6106C26.2491 27.8089 24.6602 28.429 23.6444 27.6631C21.2007 26.1034 18.7383 24.5589 16.3269 22.9637C15.5365 22.2054 16.2692 21.1149 16.975 20.5735C18.9879 18.6993 21.1216 17.1079 23.0284 15.1361C23.5424 13.9619 22.0233 14.951 21.5215 15.2553C18.7665 17.0496 16.0786 18.9529 13.1747 20.5291C11.6905 21.3013 9.96214 20.6407 8.47932 20.2108C7.14947 19.6909 5.201 19.166 6.347 18.3734H6.34566Z" fill="#1C1C1C"/>
</svg>
