<svg width="12" height="12" viewBox="0 0 12 12" fill="none" xmlns="http://www.w3.org/2000/svg">
<path d="M9.82615 5.20846L6.54661 9.22949C6.4764 9.31332 6.39167 9.38012 6.29767 9.42578C6.20367 9.47143 6.10238 9.49499 6 9.49499C5.89762 9.49499 5.79633 9.47143 5.70233 9.42578C5.60833 9.38012 5.5236 9.31332 5.45339 9.22949L2.17385 5.20846C2.08827 5.10651 2.03115 4.97854 2.00959 4.84042C1.98804 4.70231 2.003 4.56011 2.05259 4.43146C2.10217 4.3028 2.18423 4.19335 2.28858 4.11666C2.39293 4.03996 2.51499 3.99941 2.63963 4.00001H9.36037C9.48501 3.99941 9.60707 4.03996 9.71142 4.11666C9.81577 4.19335 9.89783 4.3028 9.94741 4.43146C9.997 4.56011 10.012 4.70231 9.99041 4.84042C9.96885 4.97854 9.91173 5.10651 9.82615 5.20846Z" fill="#CFD1DC"/>
</svg>
