<svg width="64" height="64" viewBox="0 0 64 64" fill="none" xmlns="http://www.w3.org/2000/svg">
<circle cx="32.4921" cy="32.4923" r="31.5077" fill="#C65353"/>
<path d="M39.8512 25.7772C39.1691 26.0861 38.5456 25.8012 38.0393 25.2967C35.3144 22.5851 32.5931 19.87 29.9096 17.1206C29.007 16.1973 29.0277 15.2054 29.8166 14.385C30.5779 13.5955 31.6492 13.5544 32.5552 14.4502C35.3627 17.2305 38.1598 20.0279 40.8777 22.8974C41.894 23.9718 41.2739 25.6399 39.8546 25.7772H39.8512Z" fill="white"/>
<path d="M13.8398 31.5576C13.6331 30.6171 14.0327 29.9753 14.7078 29.505C15.4416 28.9936 16.3166 29.1137 17.0537 29.8345C18.9311 31.6674 20.7775 33.5347 22.6308 35.3882C23.5161 36.2772 24.4049 37.1628 25.2764 38.0655C26.1238 38.9407 26.1342 39.9808 25.3281 40.7908C24.5186 41.6043 23.4748 41.6009 22.5998 40.7256C19.8991 38.0243 17.2053 35.3127 14.5287 32.5908C14.2428 32.299 14.0671 31.9008 13.8432 31.5542L13.8398 31.5576Z" fill="white"/>
<path d="M35.4353 31.6777C35.0219 31.2899 34.9943 31.0187 35.3216 30.5279C35.9658 29.5599 36.5238 28.5336 37.075 27.5073C37.4642 26.7865 37.2541 26.2064 36.6582 25.6195C34.2916 23.306 31.9595 20.9617 29.6515 18.5933C29.1038 18.0338 28.5733 17.7764 27.8189 18.0716C27.3952 18.2363 26.9473 18.3565 26.5546 18.5762C23.847 20.0899 21.6631 22.218 19.8304 24.6653C19.0278 25.7362 18.5455 27.0508 17.9771 28.2796C17.8807 28.4924 17.9771 28.9352 18.1528 29.1103C20.6882 31.6949 23.2304 34.2726 25.8312 36.792C26.1482 37.1009 26.8991 37.3035 27.278 37.1456C28.3494 36.7062 29.4172 36.1639 30.3267 35.4568C31.0122 34.9248 31.3325 35.0278 31.8561 35.5872C35.6867 39.689 39.5311 43.7804 43.3961 47.8513C43.3961 47.8513 43.403 47.8582 43.4065 47.8616C43.8887 48.3696 44.6948 48.3765 45.184 47.8788L47.8985 45.1225C48.3807 44.6317 48.367 43.8388 47.8675 43.3651C43.7303 39.4625 39.5897 35.5667 35.4422 31.6777H35.4353Z" fill="white"/>
</svg>
