<svg width="25" height="25" viewBox="0 0 25 25" fill="none" xmlns="http://www.w3.org/2000/svg">
<path d="M4.16699 22.9168L8.54199 21.1981C7.98644 19.9481 7.57845 18.7719 7.31803 17.6694C7.05762 16.567 6.88401 15.2953 6.7972 13.8543L5.10449 15.0002C4.80935 15.1911 4.57932 15.4429 4.41439 15.7554C4.24946 16.0679 4.16699 16.3977 4.16699 16.745V22.9168ZM9.53157 20.8335H15.4691C16.0246 19.5835 16.45 18.3161 16.7451 17.0314C17.0403 15.7467 17.1878 14.4706 17.1878 13.2033C17.1878 11.0331 16.7581 8.98888 15.8988 7.07048C15.0394 5.15207 13.9066 3.69808 12.5003 2.7085C11.0941 3.69808 9.96126 5.15207 9.10189 7.07048C8.24251 8.98888 7.81283 11.0331 7.81283 13.2033C7.81283 14.4706 7.9604 15.7467 8.25553 17.0314C8.55067 18.3161 8.97602 19.5835 9.53157 20.8335ZM12.5003 13.2814C11.9969 13.2814 11.5672 13.1035 11.2113 12.7476C10.8554 12.3917 10.6774 11.962 10.6774 11.4585C10.6774 10.955 10.8554 10.5253 11.2113 10.1694C11.5672 9.81353 11.9969 9.63558 12.5003 9.63558C13.0038 9.63558 13.4335 9.81353 13.7894 10.1694C14.1453 10.5253 14.3232 10.955 14.3232 11.4585C14.3232 11.962 14.1453 12.3917 13.7894 12.7476C13.4335 13.1035 13.0038 13.2814 12.5003 13.2814ZM20.8337 22.9168V16.745C20.8337 16.3977 20.7512 16.0679 20.5863 15.7554C20.4213 15.4429 20.1913 15.1911 19.8962 15.0002L18.2035 13.8543C18.1166 15.2953 17.943 16.567 17.6826 17.6694C17.4222 18.7719 17.0142 19.9481 16.4587 21.1981L20.8337 22.9168Z" fill="#00D7F4"/>
</svg>
