<svg width="25" height="25" viewBox="0 0 25 25" fill="none" xmlns="http://www.w3.org/2000/svg">
<path d="M5.67708 21.8748C4.96528 21.8748 4.36198 21.6274 3.86719 21.1327C3.3724 20.6379 3.125 20.0346 3.125 19.3228C3.125 18.6109 3.3724 18.0077 3.86719 17.5129C4.36198 17.0181 4.96528 16.7707 5.67708 16.7707C6.38889 16.7707 6.99219 17.0181 7.48698 17.5129C7.98177 18.0077 8.22917 18.6109 8.22917 19.3228C8.22917 20.0346 7.98177 20.6379 7.48698 21.1327C6.99219 21.6274 6.38889 21.8748 5.67708 21.8748ZM18.4896 21.8748C18.4896 19.7568 18.0859 17.7646 17.2786 15.8983C16.4714 14.032 15.3733 12.4044 13.9844 11.0155C12.5955 9.62657 10.9679 8.52848 9.10156 7.72119C7.23524 6.9139 5.24306 6.51025 3.125 6.51025V4.1665C5.57292 4.1665 7.86892 4.63091 10.013 5.55973C12.1571 6.48855 14.0321 7.75591 15.638 9.36182C17.2439 10.9677 18.5113 12.8427 19.4401 14.9868C20.3689 17.1309 20.8333 19.4269 20.8333 21.8748H18.4896ZM12.2917 21.8748C12.2917 19.1318 11.4497 16.8835 9.76563 15.13C8.0816 13.3766 5.86806 12.4998 3.125 12.4998V10.1561C4.80903 10.1561 6.35417 10.4512 7.76042 11.0415C9.16667 11.6318 10.3776 12.4478 11.3932 13.4894C12.4089 14.5311 13.2031 15.7681 13.776 17.2004C14.349 18.6327 14.6354 20.1908 14.6354 21.8748H12.2917Z" fill="#757575"/>
</svg>
