<svg width="32" height="32" viewBox="0 0 32 32" fill="none" xmlns="http://www.w3.org/2000/svg">
<g clip-path="url(#clip0_232_1940)">
<path d="M16.6085 0.337832L17.6588 2.10496C17.8922 2.48839 18.3923 2.57175 18.7257 2.27167L20.2594 0.921317C20.6595 0.571226 21.293 0.771278 21.4097 1.28808L21.8599 3.2886C21.9599 3.72205 22.4267 3.95544 22.8268 3.77206L24.7106 2.97185C25.1941 2.75513 25.7442 3.15523 25.6942 3.6887L25.5108 5.72257C25.4775 6.15601 25.8442 6.52278 26.2777 6.48943L28.3115 6.30605C28.845 6.25604 29.2284 6.78951 29.0284 7.28964L28.2282 9.17347C28.0615 9.57357 28.2949 10.0404 28.7116 10.1404L30.7122 10.5905C31.229 10.7072 31.429 11.3407 31.0789 11.7408L29.7286 13.2745C29.4452 13.608 29.5285 14.1248 29.8953 14.3415L31.6624 15.3918C32.1125 15.6585 32.1125 16.3253 31.6624 16.6087L29.8953 17.659C29.5119 17.8924 29.4285 18.3925 29.7286 18.726L31.0789 20.2597C31.429 20.6598 31.229 21.2933 30.7122 21.41L28.7116 21.8601C28.2782 21.9601 28.0448 22.4269 28.2282 22.827L29.0284 24.7108C29.2451 25.1943 28.845 25.7444 28.3115 25.6944L26.2777 25.5111C25.8442 25.4777 25.4775 25.8445 25.5108 26.2779L25.6942 28.3118C25.7442 28.8453 25.2107 29.2287 24.7106 29.0286L22.8268 28.2284C22.4267 28.0617 21.9599 28.2951 21.8599 28.7119L21.4097 30.7124C21.293 31.2292 20.6595 31.4293 20.2594 31.0792L18.7257 29.7288C18.3923 29.4454 17.8755 29.5288 17.6588 29.8955L16.6085 31.6627C16.3418 32.1128 15.6749 32.1128 15.3915 31.6627L14.3412 29.8955C14.1078 29.5121 13.6077 29.4287 13.2743 29.7288L11.7406 31.0792C11.3405 31.4293 10.707 31.2292 10.5903 30.7124L10.1401 28.7119C10.0401 28.2784 9.57333 28.045 9.17322 28.2284L7.2894 29.0286C6.80594 29.2454 6.2558 28.8453 6.30581 28.3118L6.48919 26.2779C6.52253 25.8445 6.15577 25.4777 5.72232 25.5111L3.68846 25.6944C3.15499 25.7444 2.77156 25.211 2.97161 24.7108L3.77182 22.827C3.93853 22.4269 3.70513 21.9601 3.28836 21.8601L1.28784 21.41C0.771034 21.2933 0.570982 20.6598 0.921073 20.2597L2.27143 18.726C2.55483 18.3925 2.47148 17.8757 2.10471 17.659L0.337588 16.6087C-0.112529 16.342 -0.112529 15.6752 0.337588 15.3918L2.10471 14.3415C2.48815 14.1081 2.5715 13.608 2.27143 13.2745L0.921073 11.7408C0.570982 11.3407 0.771034 10.7072 1.28784 10.5905L3.28836 10.1404C3.7218 10.0404 3.9552 9.57357 3.77182 9.17347L2.97161 7.28964C2.75488 6.80618 3.15499 6.25604 3.68846 6.30605L5.72232 6.48943C6.15577 6.52278 6.52253 6.15601 6.48919 5.72257L6.30581 3.6887C6.2558 3.15523 6.78927 2.7718 7.2894 2.97185L9.17322 3.77206C9.57333 3.93877 10.0401 3.70538 10.1401 3.2886L10.5903 1.28808C10.707 0.771278 11.3405 0.571226 11.7406 0.921317L13.2743 2.27167C13.6077 2.55508 14.1245 2.47172 14.3412 2.10496L15.3915 0.337832C15.6582 -0.112285 16.3251 -0.112285 16.6085 0.337832Z" fill="#7792FD"/>
<path d="M22.0278 11.1699C21.914 11.0609 21.7618 11 21.6033 11C21.4448 11 21.2926 11.0609 21.1788 11.1699L14.8405 17.488C14.7849 17.5434 14.7188 17.5873 14.646 17.6173C14.5731 17.6472 14.4949 17.6627 14.416 17.6627C14.337 17.6627 14.2589 17.6472 14.1861 17.6173C14.1132 17.5873 14.047 17.5434 13.9915 17.488L10.8582 14.3703C10.8026 14.3149 10.7365 14.271 10.6636 14.241C10.5908 14.211 10.5126 14.1956 10.4336 14.1956C10.3547 14.1956 10.2766 14.211 10.2037 14.241C10.1308 14.271 10.0647 14.3149 10.0091 14.3703L9.17197 15.1969C9.06165 15.3093 9 15.4597 9 15.6162C9 15.7727 9.06165 15.9231 9.17197 16.0354L13.9555 20.8301C14.0693 20.9391 14.2216 21 14.3801 21C14.5386 21 14.6909 20.9391 14.8047 20.8301L22.8291 12.835C22.9387 12.7246 23 12.5762 23 12.4217C23 12.2671 22.9387 12.1187 22.8291 12.0083L22.0278 11.1699Z" fill="white"/>
</g>
<defs>
<clipPath id="clip0_232_1940">
<rect width="32" height="32" fill="white"/>
</clipPath>
</defs>
</svg>
