<svg width="18" height="18" viewBox="0 0 18 18" fill="none" xmlns="http://www.w3.org/2000/svg">
<g clip-path="url(#clip0_280_12944)">
<path d="M15.7629 -4.88281e-05H16.3174C16.3513 0.0438965 16.4016 0.0302734 16.4454 0.0377441C17.1141 0.147607 17.61 0.671436 17.7081 1.34995C17.7775 1.83115 17.7098 2.29697 17.5801 2.75532C17.2525 3.91548 16.6763 4.95522 16.0328 5.95762C15.0158 7.54229 13.8365 8.99863 12.5678 10.3803C10.5467 12.5811 8.36553 14.5968 5.88454 16.2588C5.06058 16.8108 4.20148 17.2986 3.27295 17.6541C2.86162 17.8119 2.43771 17.9103 2.00989 18.0004H1.4211C1.38943 17.9894 1.35862 17.9731 1.32608 17.9683C0.666999 17.8659 0.214885 17.4396 0.0621552 16.7765C0.0452334 16.7031 0.0213694 16.6315 0.000976562 16.559C0.000976562 16.3832 0.000976562 16.2074 0.000976562 16.0316C0.0100883 15.9991 0.0235389 15.9666 0.02701 15.9332C0.0842836 15.3865 0.253501 14.871 0.463938 14.3696C0.906941 13.3149 1.4966 12.3446 2.13963 11.4064C2.21903 11.2908 2.23682 11.1933 2.19603 11.054C1.80119 9.70747 1.78817 8.35439 2.17347 7.00396C3.12326 3.67466 6.3705 1.51211 9.75832 1.98188C11.9334 2.28379 13.6299 3.38022 14.8118 5.27251C14.84 5.31733 14.8513 5.38281 14.9186 5.39556C15.4544 4.55049 15.94 3.68125 16.3031 2.74697C16.4259 2.43145 16.5301 2.10801 16.5309 1.76172C16.5314 1.39214 16.3595 1.21899 15.9964 1.24009C15.7773 1.25283 15.5638 1.30601 15.3533 1.37061C14.7771 1.54771 14.2356 1.80698 13.7059 2.09307C13.6121 2.1436 13.5444 2.14009 13.4559 2.08076C13.2299 1.93003 13.0051 1.77534 12.7608 1.65361C12.6281 1.5877 12.4988 1.51431 12.3508 1.43477C12.9856 1.03574 13.6226 0.698682 14.2877 0.415674C14.7628 0.213525 15.2579 0.0882812 15.7638 -0.000488281L15.7629 -4.88281e-05ZM5.3322 15.1316C5.30009 15.1053 5.28056 15.0846 5.2567 15.0701C4.28652 14.4738 3.50204 13.688 2.91455 12.7023C2.83732 12.5731 2.80825 12.6369 2.75835 12.7168C2.24766 13.5395 1.7808 14.3859 1.43195 15.2938C1.31046 15.6098 1.20806 15.9341 1.21283 16.2804C1.21761 16.6086 1.3699 16.7625 1.69359 16.7673C1.87929 16.7699 2.06283 16.7374 2.23985 16.6873C3.3632 16.3683 4.34813 15.7658 5.33176 15.1321L5.3322 15.1316Z" fill="#00D7F4"/>
<path d="M8.33105 16.0503C11.1405 13.8315 13.6245 11.3073 15.8087 8.46533C16.2565 12.5773 12.6635 16.4651 8.33105 16.0503V16.0503Z" fill="#00D7F4"/>
</g>
<defs>
<clipPath id="clip0_280_12944">
<rect width="17.7353" height="18" fill="white"/>
</clipPath>
</defs>
</svg>
