<svg width="25" height="25" viewBox="0 0 25 25" fill="none" xmlns="http://www.w3.org/2000/svg">
<path d="M8.30762 18.4897H16.693V16.9272H8.30762V18.4897ZM8.30762 14.0627H16.693V12.5002H8.30762V14.0627ZM5.72949 22.9168C5.31283 22.9168 4.94824 22.7606 4.63574 22.4481C4.32324 22.1356 4.16699 21.771 4.16699 21.3543V3.646C4.16699 3.22933 4.32324 2.86475 4.63574 2.55225C4.94824 2.23975 5.31283 2.0835 5.72949 2.0835H15.1305L20.8337 7.78662V21.3543C20.8337 21.771 20.6774 22.1356 20.3649 22.4481C20.0524 22.7606 19.6878 22.9168 19.2712 22.9168H5.72949ZM14.3493 8.48975H19.2712L14.3493 3.646V8.48975Z" fill="white"/>
</svg>
