<svg width="20" height="20" viewBox="0 0 20 20" fill="none" xmlns="http://www.w3.org/2000/svg">
<path d="M14.0799 2.34867L17.0839 5.35262C17.2085 5.47609 17.3074 5.623 17.3749 5.78491C17.4424 5.94682 17.4771 6.12052 17.4771 6.29594C17.4771 6.47135 17.4424 6.64502 17.3749 6.80693C17.3074 6.96884 17.2085 7.11578 17.0839 7.23925L7.25693 17.0662C7.01438 17.3114 6.68593 17.4527 6.3411 17.46H3.33712C2.98249 17.46 2.64241 17.3191 2.39165 17.0684C2.14089 16.8176 2 16.4775 2 16.1229V13.1556C2.01196 12.8117 2.15249 12.4849 2.3938 12.2397L12.2208 2.41276C12.4605 2.1607 12.7896 2.01278 13.1372 2.00079C13.4849 1.9888 13.8234 2.11372 14.0799 2.34867V2.34867Z" stroke="#00D7F4" stroke-width="1.5" stroke-linecap="round" stroke-linejoin="round"/>
<path d="M10.75 4.5L15.2437 8.91521" stroke="#00D7F4" stroke-width="1.5" stroke-linecap="round" stroke-linejoin="round"/>
<path d="M6.68945 17.46H18.9709" stroke="#00D7F4" stroke-width="1.5" stroke-linecap="round" stroke-linejoin="round"/>
</svg>
