<svg width="16" height="16" viewBox="0 0 16 16" fill="none" xmlns="http://www.w3.org/2000/svg">
<g clip-path="url(#clip0_170_2856)">
<path d="M3.32657 7.59146C3.32657 7.21716 3.6297 6.91403 4.004 6.91403H4.00663L5.13612 6.91799C5.51042 6.91799 5.81487 7.22244 5.81487 7.59674V11.8669C5.9414 11.8287 6.10482 11.7892 6.28406 11.747C6.53975 11.6864 6.72031 11.4584 6.72031 11.1961V5.89921C6.72031 5.52491 7.02476 5.22046 7.39906 5.22046H8.53118C8.90548 5.22046 9.20993 5.52491 9.20993 5.89921V10.8152C9.20993 10.8152 9.49329 10.7005 9.76874 10.5845C9.9783 10.4962 10.114 10.2906 10.114 10.0626V4.20168C10.114 3.82738 10.4185 3.52293 10.7928 3.52293H11.9236C12.2979 3.52293 12.6024 3.82738 12.6024 4.20168V9.02804C13.5829 8.31766 14.578 7.46231 15.3661 6.4343C15.5981 6.13117 15.664 5.73183 15.5401 5.37071C14.093 1.20069 9.53942 -1.00425 5.3694 0.445502C1.2007 1.89394 -1.00424 6.4488 0.445514 10.6175C0.60894 11.088 0.81586 11.5427 1.06364 11.9737C1.26133 12.3137 1.63695 12.5088 2.02838 12.4732C2.24189 12.4547 2.50943 12.427 2.82574 12.3901C3.11042 12.3572 3.32657 12.116 3.32657 11.8287V7.59146Z" fill="#21325B"/>
<path d="M3.30273 14.4396C6.87308 17.0373 11.8734 16.2478 14.4698 12.6775C15.4648 11.3108 15.9999 9.66333 15.9999 7.97371C15.9999 7.7892 15.9907 7.60732 15.9788 7.42676C13.0583 11.7826 7.66517 13.8202 3.30273 14.4396Z" fill="#979695"/>
</g>
<defs>
<clipPath id="clip0_170_2856">
<rect width="16" height="15.9697" fill="white"/>
</clipPath>
</defs>
</svg>
