<svg width="25" height="25" viewBox="0 0 25 25" fill="none" xmlns="http://www.w3.org/2000/svg">
<path d="M12.5003 12.4741C11.3545 12.4741 10.417 12.1095 9.68783 11.3804C8.95866 10.6512 8.59408 9.71371 8.59408 8.56787C8.59408 7.42204 8.95866 6.48454 9.68783 5.75537C10.417 5.0262 11.3545 4.66162 12.5003 4.66162C13.6462 4.66162 14.5837 5.0262 15.3128 5.75537C16.042 6.48454 16.4066 7.42204 16.4066 8.56787C16.4066 9.71371 16.042 10.6512 15.3128 11.3804C14.5837 12.1095 13.6462 12.4741 12.5003 12.4741V12.4741ZM4.16699 20.8335V18.3856C4.16699 17.7259 4.33192 17.1616 4.66178 16.6929C4.99164 16.2241 5.41699 15.8682 5.93783 15.6252C7.10102 15.1043 8.21647 14.7137 9.28418 14.4533C10.3519 14.1929 11.4239 14.0627 12.5003 14.0627C13.5767 14.0627 14.6444 14.1972 15.7034 14.4663C16.7625 14.7354 17.8736 15.1217 19.0368 15.6252C19.575 15.8682 20.009 16.2241 20.3389 16.6929C20.6687 17.1616 20.8337 17.7259 20.8337 18.3856V20.8335H4.16699Z" fill="#757575"/>
</svg>
