<svg width="25" height="25" viewBox="0 0 25 25" fill="none" xmlns="http://www.w3.org/2000/svg">
<path d="M12.4219 18.5938C12.6997 18.5938 12.934 18.4983 13.125 18.3073C13.316 18.1163 13.4115 17.8819 13.4115 17.6042C13.4115 17.3264 13.316 17.092 13.125 16.901C12.934 16.7101 12.6997 16.6146 12.4219 16.6146C12.1441 16.6146 11.9097 16.7101 11.7188 16.901C11.5278 17.092 11.4323 17.3264 11.4323 17.6042C11.4323 17.8819 11.5278 18.1163 11.7188 18.3073C11.9097 18.4983 12.1441 18.5938 12.4219 18.5938ZM11.5625 14.7396H13.0469C13.0469 14.2014 13.1337 13.763 13.3073 13.4245C13.4809 13.0859 13.7847 12.6997 14.2187 12.2656C14.7917 11.6927 15.191 11.1849 15.4167 10.7422C15.6424 10.2995 15.7552 9.83507 15.7552 9.34896C15.7552 8.42882 15.4601 7.69965 14.8698 7.16146C14.2795 6.62326 13.4809 6.35417 12.474 6.35417C11.5885 6.35417 10.829 6.56684 10.1953 6.99219C9.56163 7.41753 9.09722 8.00347 8.80208 8.75L10.1823 9.32292C10.4253 8.83681 10.7378 8.46788 11.1198 8.21615C11.5017 7.96441 11.9531 7.83854 12.474 7.83854C13.0295 7.83854 13.4679 7.97743 13.7891 8.25521C14.1102 8.53299 14.2708 8.91493 14.2708 9.40104C14.2708 9.74826 14.1753 10.0825 13.9844 10.4036C13.7934 10.7248 13.4722 11.1024 13.0208 11.5365C12.3785 12.1441 11.9748 12.6649 11.8099 13.099C11.645 13.533 11.5625 14.0799 11.5625 14.7396ZM4.6875 21.875C4.27083 21.875 3.90625 21.7187 3.59375 21.4062C3.28125 21.0937 3.125 20.7292 3.125 20.3125V4.6875C3.125 4.27083 3.28125 3.90625 3.59375 3.59375C3.90625 3.28125 4.27083 3.125 4.6875 3.125H20.3125C20.7292 3.125 21.0937 3.28125 21.4062 3.59375C21.7187 3.90625 21.875 4.27083 21.875 4.6875V20.3125C21.875 20.7292 21.7187 21.0937 21.4062 21.4062C21.0937 21.7187 20.7292 21.875 20.3125 21.875H4.6875Z" fill="white"/>
</svg>
