<svg width="40" height="40" viewBox="0 0 40 40" fill="none" xmlns="http://www.w3.org/2000/svg">
<path d="M34.5492 16.961L20.9189 4.37219C20.6689 4.13792 20.3408 4.00781 20.0002 4.00781C19.6596 4.00781 19.3316 4.13792 19.0815 4.37219L5.4345 16.978C5.29476 17.106 5.1837 17.2628 5.10879 17.4379C5.03388 17.613 4.99686 17.8024 5.00021 17.9932V32.6463C5.00021 33.0098 5.14276 33.3584 5.3965 33.6154C5.65023 33.8725 5.99437 34.0169 6.35321 34.0169H33.6305C33.9909 34.0169 34.3368 33.8731 34.5932 33.6165C34.8496 33.3599 34.9958 33.0114 35.0002 32.6463V17.9932C35.0028 17.7984 34.9638 17.6053 34.886 17.4272C34.8082 17.2491 34.6933 17.0901 34.5492 16.961ZM25.5125 27.7901H14.488V25.3197H25.5125V27.7901Z" fill="#1D1E22"/>
</svg>
