<svg width="36" height="36" viewBox="0 0 36 36" fill="none" xmlns="http://www.w3.org/2000/svg">
<path fill-rule="evenodd" clip-rule="evenodd" d="M18.0108 7.00001C15.8348 6.99787 13.707 7.6412 11.8966 8.8486C10.0862 10.056 8.67465 11.7732 7.84043 13.783C7.0062 15.7928 6.78684 18.0049 7.21005 20.1394C7.63327 22.2739 8.68006 24.2349 10.218 25.7743C11.756 27.3138 13.7159 28.3625 15.85 28.7878C17.9841 29.2132 20.1964 28.9959 22.207 28.1637C24.2176 27.3314 25.9362 25.9216 27.1454 24.1124C28.3546 22.3032 29 20.1761 29 18C29 15.0845 27.8426 12.2883 25.782 10.2257C23.7214 8.16308 20.9263 7.00287 18.0108 7.00001ZM18.0108 27.3668C16.1552 27.3689 14.3406 26.8205 12.7968 25.7909C11.253 24.7613 10.0494 23.2968 9.33832 21.5828C8.62722 19.8688 8.4406 17.9825 8.80209 16.1624C9.16358 14.3423 10.0569 12.6704 11.3691 11.3582C12.6812 10.0461 14.3531 9.15278 16.1732 8.79129C17.9933 8.4298 19.8797 8.6164 21.5936 9.32751C23.3076 10.0386 24.7721 11.2423 25.8017 12.786C26.8313 14.3298 27.3797 16.1444 27.3776 18C27.3719 20.4815 26.3828 22.8595 24.6271 24.6132C22.8715 26.3668 20.4923 27.3531 18.0108 27.3559V27.3668ZM18.0108 16.1726C17.7956 16.1726 17.5893 16.258 17.4372 16.4102C17.2851 16.5623 17.1996 16.7686 17.1996 16.9838V23.0949C17.1996 23.31 17.2851 23.5164 17.4372 23.6685C17.5893 23.8206 17.7956 23.9061 18.0108 23.9061C18.2259 23.9061 18.4323 23.8206 18.5844 23.6685C18.7365 23.5164 18.822 23.31 18.822 23.0949V16.9838C18.8192 16.7695 18.7328 16.5648 18.5813 16.4133C18.4298 16.2617 18.2251 16.1754 18.0108 16.1726ZM19.0492 13.8679C19.0492 14.4413 18.5843 14.9062 18.0108 14.9062C17.4374 14.9062 16.9725 14.4413 16.9725 13.8679C16.9725 13.2944 17.4374 12.8295 18.0108 12.8295C18.5843 12.8295 19.0492 13.2944 19.0492 13.8679Z" fill="#00D7F4"/>
</svg>
