<svg width="24" height="24" viewBox="0 0 24 24" fill="none" xmlns="http://www.w3.org/2000/svg">
<path d="M5.43602 18.8576C5.12925 18.8576 4.86083 18.7425 4.63076 18.5124C4.40068 18.2824 4.28564 18.014 4.28564 17.7072V8.50418C4.28564 8.19741 4.40068 7.92899 4.63076 7.69891C4.86083 7.46884 5.12925 7.3538 5.43602 7.3538H8.88715V5.43651C8.88715 5.12974 9.00219 4.86132 9.23226 4.63125C9.46234 4.40117 9.73076 4.28613 10.0375 4.28613H13.8721C14.1789 4.28613 14.4473 4.40117 14.6774 4.63125C14.9074 4.86132 15.0225 5.12974 15.0225 5.43651V7.3538H18.4736C18.7804 7.3538 19.0488 7.46884 19.2789 7.69891C19.509 7.92899 19.624 8.19741 19.624 8.50418V17.7072C19.624 18.014 19.509 18.2824 19.2789 18.5124C19.0488 18.7425 18.7804 18.8576 18.4736 18.8576H5.43602ZM10.0375 7.3538H13.8721V5.43651H10.0375V7.3538Z" fill="#00D7F4"/>
</svg>
