<svg width="25" height="25" viewBox="0 0 25 25" fill="none" xmlns="http://www.w3.org/2000/svg">
<path d="M5.34211 21C4.98421 21 4.67105 20.8658 4.40263 20.5974C4.13421 20.3289 4 20.0158 4 19.6579V8.92105C4 8.56316 4.13421 8.25 4.40263 7.98158C4.67105 7.71316 4.98421 7.57895 5.34211 7.57895H9.36842V5.34211C9.36842 4.98421 9.50263 4.67105 9.77105 4.40263C10.0395 4.13421 10.3526 4 10.7105 4H15.1842C15.5421 4 15.8553 4.13421 16.1237 4.40263C16.3921 4.67105 16.5263 4.98421 16.5263 5.34211V7.57895H20.5526C20.9105 7.57895 21.2237 7.71316 21.4921 7.98158C21.7605 8.25 21.8947 8.56316 21.8947 8.92105V19.6579C21.8947 20.0158 21.7605 20.3289 21.4921 20.5974C21.2237 20.8658 20.9105 21 20.5526 21H5.34211ZM10.7105 7.57895H15.1842V5.34211H10.7105V7.57895Z" fill="#00D7F4"/>
</svg>
