<svg width="25" height="25" viewBox="0 0 25 25" fill="none" xmlns="http://www.w3.org/2000/svg">
<path d="M12.4997 22.9168C11.0761 22.9168 9.73058 22.6434 8.46322 22.0965C7.19586 21.5496 6.08908 20.8031 5.1429 19.8569C4.19672 18.9108 3.4502 17.804 2.90332 16.5366C2.35645 15.2693 2.08301 13.9238 2.08301 12.5002C2.08301 11.0418 2.36079 9.67898 2.91634 8.41162C3.4719 7.14426 4.23145 6.04183 5.19499 5.10433C6.15853 4.16683 7.287 3.42898 8.5804 2.89079C9.87381 2.35259 11.2584 2.0835 12.7341 2.0835C14.1056 2.0835 15.4077 2.31353 16.6403 2.7736C17.8729 3.23367 18.9537 3.87169 19.8825 4.68766C20.8113 5.50364 21.5492 6.47152 22.096 7.59131C22.6429 8.7111 22.9163 9.9394 22.9163 11.2762C22.9163 13.1512 22.3695 14.6312 21.2757 15.7163C20.182 16.8014 18.7323 17.3439 16.9268 17.3439H14.9736C14.6611 17.3439 14.392 17.4654 14.1663 17.7085C13.9406 17.9516 13.8278 18.2206 13.8278 18.5158C13.8278 18.863 13.9537 19.1929 14.2054 19.5054C14.4571 19.8179 14.583 20.1911 14.583 20.6252C14.583 21.0766 14.3703 21.5713 13.945 22.1095C13.5196 22.6477 13.0379 22.9168 12.4997 22.9168ZM6.43197 13.1772C6.77919 13.1772 7.08301 13.047 7.34343 12.7866C7.60384 12.5262 7.73405 12.2224 7.73405 11.8752C7.73405 11.5279 7.60384 11.2241 7.34343 10.9637C7.08301 10.7033 6.77919 10.5731 6.43197 10.5731C6.08474 10.5731 5.78093 10.7033 5.52051 10.9637C5.26009 11.2241 5.12988 11.5279 5.12988 11.8752C5.12988 12.2224 5.26009 12.5262 5.52051 12.7866C5.78093 13.047 6.08474 13.1772 6.43197 13.1772ZM9.71322 8.75016C10.0604 8.75016 10.3643 8.61995 10.6247 8.35954C10.8851 8.09912 11.0153 7.7953 11.0153 7.44808C11.0153 7.10086 10.8851 6.79704 10.6247 6.53662C10.3643 6.27621 10.0604 6.146 9.71322 6.146C9.36599 6.146 9.06217 6.27621 8.80176 6.53662C8.54134 6.79704 8.41113 7.10086 8.41113 7.44808C8.41113 7.7953 8.54134 8.09912 8.80176 8.35954C9.06217 8.61995 9.36599 8.75016 9.71322 8.75016ZM15.2861 8.75016C15.6334 8.75016 15.9372 8.61995 16.1976 8.35954C16.458 8.09912 16.5882 7.7953 16.5882 7.44808C16.5882 7.10086 16.458 6.79704 16.1976 6.53662C15.9372 6.27621 15.6334 6.146 15.2861 6.146C14.9389 6.146 14.6351 6.27621 14.3747 6.53662C14.1143 6.79704 13.9841 7.10086 13.9841 7.44808C13.9841 7.7953 14.1143 8.09912 14.3747 8.35954C14.6351 8.61995 14.9389 8.75016 15.2861 8.75016ZM18.6976 13.1772C19.0448 13.1772 19.3486 13.047 19.6091 12.7866C19.8695 12.5262 19.9997 12.2224 19.9997 11.8752C19.9997 11.5279 19.8695 11.2241 19.6091 10.9637C19.3486 10.7033 19.0448 10.5731 18.6976 10.5731C18.3504 10.5731 18.0466 10.7033 17.7861 10.9637C17.5257 11.2241 17.3955 11.5279 17.3955 11.8752C17.3955 12.2224 17.5257 12.5262 17.7861 12.7866C18.0466 13.047 18.3504 13.1772 18.6976 13.1772Z" fill="#757575"/>
</svg>
