<svg width="16" height="16" viewBox="0 0 16 16" fill="none" xmlns="http://www.w3.org/2000/svg">
<path opacity="0.4" d="M4.19435 7.76758L4.18037 7.98105C4.12643 8.76309 3.86273 9.44938 3.39526 10.0239C2.95377 10.5666 2.19463 11.0933 1.07791 11.6299L2.34446 14C4.10845 13.21 5.377 12.2903 6.11416 11.2628C6.87129 10.2095 7.25485 8.74514 7.25485 6.91372V2H1V7.76758H4.19435Z" fill="white"/>
<path opacity="0.4" d="M8.74915 7.76758H11.9435L11.9295 7.98105C11.8756 8.76309 11.6119 9.44938 11.1444 10.0239C10.7029 10.5666 9.94378 11.0933 8.82706 11.6299L10.0936 14C11.8576 13.21 13.1261 12.2903 13.8633 11.2628C14.6204 10.2095 15.004 8.74514 15.004 6.91372V2H8.75514V7.76758H8.74915Z" fill="white"/>
</svg>
