<svg width="16" height="16" viewBox="0 0 16 16" fill="none" xmlns="http://www.w3.org/2000/svg">
<g clip-path="url(#clip0_74_9281)">
<path opacity="0.4" d="M11.8057 8.23242L11.8196 8.01895C11.8736 7.23691 12.1373 6.55062 12.6047 5.97606C13.0462 5.43342 13.8054 4.90673 14.9221 4.37008L13.6555 2C11.8916 2.79002 10.623 3.70972 9.88585 4.73716C9.12871 5.79052 8.74515 7.25486 8.74515 9.08628L8.74515 14L15 14L15 8.23242L11.8057 8.23242Z" fill="white"/>
<path opacity="0.4" d="M7.25085 8.23242L4.05651 8.23242L4.07049 8.01895C4.12443 7.23691 4.38813 6.55062 4.85559 5.97606C5.29709 5.43342 6.05622 4.90673 7.17294 4.37008L5.90639 2C4.14241 2.79002 2.87386 3.70972 2.1367 4.73716C1.37957 5.79052 0.996004 7.25486 0.996004 9.08628L0.996004 14L7.24486 14L7.24486 8.23242L7.25085 8.23242Z" fill="white"/>
</g>
<defs>
<clipPath id="clip0_74_9281">
<rect width="16" height="16" fill="white" transform="translate(16 16) rotate(-180)"/>
</clipPath>
</defs>
</svg>
