<svg width="20" height="20" viewBox="0 0 20 20" fill="none" xmlns="http://www.w3.org/2000/svg">
<rect x="0.5" y="0.5" width="19" height="19" rx="9.5" fill="#DA7676" stroke="#C65353"/>
<path d="M14.3056 7.11891C14.2243 7.04265 14.1156 7 14.0024 7C13.8892 7 13.7804 7.04265 13.6991 7.11891L9.17178 11.5416C9.13208 11.5803 9.08488 11.6111 9.03284 11.6321C8.98079 11.6531 8.92494 11.6639 8.86855 11.6639C8.81217 11.6639 8.75637 11.6531 8.70432 11.6321C8.65227 11.6111 8.60503 11.5803 8.56532 11.5416L6.3273 9.35919C6.28759 9.32045 6.24035 9.2897 6.1883 9.26872C6.13626 9.24773 6.0804 9.23693 6.02402 9.23693C5.96764 9.23693 5.91184 9.24773 5.85979 9.26872C5.80774 9.2897 5.7605 9.32045 5.72079 9.35919L5.12283 9.93786C5.04403 10.0165 5 10.1218 5 10.2313C5 10.3409 5.04403 10.4461 5.12283 10.5248L8.53967 13.8811C8.62095 13.9574 8.72975 14 8.84295 14C8.95616 14 9.0649 13.9574 9.14618 13.8811L14.8779 8.28452C14.9562 8.20725 15 8.10337 15 7.99518C15 7.88699 14.9562 7.78311 14.8779 7.70584L14.3056 7.11891Z" fill="white"/>
</svg>
