<svg width="16" height="16" viewBox="0 0 16 16" fill="none" xmlns="http://www.w3.org/2000/svg">
<path d="M8.79193 2.15439L9.94693 4.49239C10.1989 5.00339 10.6889 5.36039 11.2489 5.43739L13.8319 5.81539C14.5739 5.92039 14.8679 6.83039 14.3289 7.35539L12.4599 9.17539C12.0539 9.57439 11.8649 10.1484 11.9629 10.7084L12.4039 13.2774C12.5299 14.0124 11.7599 14.5724 11.0949 14.2294L8.78493 13.0184C8.28093 12.7524 7.67893 12.7524 7.17493 13.0184L4.86493 14.2294C4.20693 14.5794 3.42993 14.0124 3.55593 13.2774L3.99693 10.7084C4.09493 10.1484 3.90593 9.57439 3.49993 9.17539L1.63093 7.35539C1.09893 6.83039 1.39293 5.92739 2.12793 5.81539L4.71093 5.43739C5.27793 5.35339 5.76093 5.00339 6.01293 4.49239L7.16793 2.15439C7.49693 1.48239 8.45593 1.48239 8.78493 2.15439H8.79193Z" fill="#7792FD"/>
</svg>
