<svg width="24" height="24" viewBox="0 0 24 24" fill="none" xmlns="http://www.w3.org/2000/svg">
<g clip-path="url(#clip0_609_2860)">
<rect x="1" y="1" width="22" height="22" rx="11" fill="#3F3F3F" stroke="#2C2C2C" stroke-width="2"/>
<path d="M17.1667 8.54259C17.0692 8.45108 16.9387 8.3999 16.8028 8.3999C16.667 8.3999 16.5365 8.45108 16.439 8.54259L11.0061 13.8498C10.9585 13.8963 10.9019 13.9332 10.8394 13.9584C10.7769 13.9836 10.7099 13.9965 10.6423 13.9965C10.5746 13.9965 10.5076 13.9836 10.4452 13.9584C10.3827 13.9332 10.326 13.8963 10.2784 13.8498L7.59276 11.2309C7.54511 11.1844 7.48842 11.1475 7.42596 11.1224C7.36351 11.0972 7.29648 11.0842 7.22882 11.0842C7.16116 11.0842 7.0942 11.0972 7.03175 11.1224C6.96929 11.1475 6.9126 11.1844 6.86495 11.2309L6.1474 11.9253C6.05284 12.0197 6 12.146 6 12.2775C6 12.409 6.05284 12.5353 6.1474 12.6297L10.2476 16.6572C10.3451 16.7487 10.4757 16.7999 10.6115 16.7999C10.7474 16.7999 10.8779 16.7487 10.9754 16.6572L17.8535 9.94132C17.9474 9.8486 18 9.72395 18 9.59412C18 9.46429 17.9474 9.33963 17.8535 9.24692L17.1667 8.54259Z" fill="white"/>
</g>
<defs>
<clipPath id="clip0_609_2860">
<rect width="24" height="24" fill="white"/>
</clipPath>
</defs>
</svg>
