<svg width="24" height="24" viewBox="0 0 24 24" fill="none" xmlns="http://www.w3.org/2000/svg">
<g clip-path="url(#clip0_609_2797)">
<rect x="1" y="1" width="22" height="22" rx="11" fill="#00D7F4" stroke="#00B5EE" stroke-width="2"/>
<path d="M17.1667 8.54283C17.0692 8.45132 16.9387 8.40015 16.8028 8.40015C16.667 8.40015 16.5365 8.45132 16.439 8.54283L11.0061 13.8501C10.9585 13.8966 10.9019 13.9335 10.8394 13.9586C10.7769 13.9838 10.7099 13.9968 10.6423 13.9968C10.5746 13.9968 10.5076 13.9838 10.4452 13.9586C10.3827 13.9335 10.326 13.8966 10.2784 13.8501L7.59276 11.2312C7.54511 11.1847 7.48842 11.1478 7.42596 11.1226C7.36351 11.0974 7.29648 11.0845 7.22882 11.0845C7.16116 11.0845 7.0942 11.0974 7.03175 11.1226C6.96929 11.1478 6.9126 11.1847 6.86495 11.2312L6.1474 11.9256C6.05284 12.02 6 12.1463 6 12.2777C6 12.4092 6.05284 12.5355 6.1474 12.6299L10.2476 16.6575C10.3451 16.749 10.4757 16.8001 10.6115 16.8001C10.7474 16.8001 10.8779 16.749 10.9754 16.6575L17.8535 9.94156C17.9474 9.84885 18 9.72419 18 9.59436C18 9.46453 17.9474 9.33988 17.8535 9.24716L17.1667 8.54283Z" fill="white"/>
</g>
<defs>
<clipPath id="clip0_609_2797">
<rect width="24" height="24" fill="white"/>
</clipPath>
</defs>
</svg>
