<svg width="25" height="25" viewBox="0 0 25 25" fill="none" xmlns="http://www.w3.org/2000/svg">
<path d="M12.4997 22.9168C11.0587 22.9168 9.70454 22.6434 8.43718 22.0965C7.16981 21.5496 6.06738 20.8075 5.12988 19.87C4.19238 18.9325 3.4502 17.83 2.90332 16.5627C2.35645 15.2953 2.08301 13.9411 2.08301 12.5002C2.08301 11.0592 2.35645 9.70502 2.90332 8.43766C3.4502 7.1703 4.19238 6.06787 5.12988 5.13037C6.06738 4.19287 7.16981 3.45068 8.43718 2.90381C9.70454 2.35693 11.0587 2.0835 12.4997 2.0835C13.9406 2.0835 15.2948 2.35693 16.5622 2.90381C17.8295 3.45068 18.932 4.19287 19.8695 5.13037C20.807 6.06787 21.5492 7.1703 22.096 8.43766C22.6429 9.70502 22.9163 11.0592 22.9163 12.5002C22.9163 13.9411 22.6429 15.2953 22.096 16.5627C21.5492 17.83 20.807 18.9325 19.8695 19.87C18.932 20.8075 17.8295 21.5496 16.5622 22.0965C15.2948 22.6434 13.9406 22.9168 12.4997 22.9168ZM11.3799 21.3283V19.1929C10.7722 19.1929 10.2601 18.9672 9.84342 18.5158C9.42676 18.0644 9.21843 17.5349 9.21843 16.9272V15.7814L3.87988 10.4429C3.79308 10.7901 3.73231 11.133 3.69759 11.4715C3.66287 11.8101 3.64551 12.1529 3.64551 12.5002C3.64551 14.7571 4.37902 16.7276 5.84603 18.4116C7.31304 20.0956 9.15766 21.0679 11.3799 21.3283ZM19.0361 18.5158C19.4181 18.0991 19.7523 17.6564 20.0387 17.1877C20.3252 16.7189 20.5683 16.2285 20.7679 15.7163C20.9676 15.2042 21.1151 14.679 21.2106 14.1408C21.3061 13.6026 21.3538 13.0557 21.3538 12.5002C21.3538 10.6599 20.8504 8.98888 19.8434 7.48714C18.8365 5.98541 17.491 4.88732 15.807 4.19287V4.66162C15.807 5.26926 15.5986 5.79877 15.182 6.25016C14.7653 6.70155 14.2531 6.92725 13.6455 6.92725H11.3799V9.19287C11.3799 9.48801 11.2627 9.73107 11.0283 9.92204C10.7939 10.113 10.5292 10.2085 10.234 10.2085H8.07259V12.5002H14.7913C15.0865 12.5002 15.3295 12.613 15.5205 12.8387C15.7115 13.0644 15.807 13.3248 15.807 13.62V16.9272H16.9268C17.4302 16.9272 17.8729 17.0748 18.2549 17.37C18.6368 17.6651 18.8972 18.047 19.0361 18.5158Z" fill="white"/>
</svg>
