<svg width="80" height="80" viewBox="0 0 80 80" fill="none" xmlns="http://www.w3.org/2000/svg">
<g clip-path="url(#clip0_170_2890)">
<path d="M79.0049 42.7029C77.7818 40.7089 77.6777 38.2203 78.7414 36.1385C80.2345 33.188 79.366 29.5903 76.6888 27.645C74.7923 26.2755 73.7481 24.0147 73.9271 21.6823C73.9824 20.9634 73.9205 20.2543 73.7579 19.5842C73.1789 17.1835 71.2954 15.2219 68.7809 14.6201C67.6423 14.3469 66.6177 13.7906 65.7849 13.0262C64.9554 12.2552 64.3146 11.2793 63.9535 10.1668C62.9256 7.02123 59.7669 5.09222 56.501 5.60944C55.3462 5.79486 54.1816 5.67125 53.1211 5.28415C52.0542 4.89379 51.0945 4.23669 50.3333 3.34538C48.6516 1.3806 46.0492 0.603141 43.6453 1.18217C42.9752 1.34482 42.3181 1.61156 41.7033 1.9889C39.7092 3.21201 37.2272 3.31611 35.1388 2.25564C33.6652 1.50746 32.0257 1.34807 30.5163 1.7124C29.0037 2.07673 27.6212 2.96804 26.6518 4.30501C25.6954 5.62246 24.3194 6.52352 22.7841 6.89436C22.1042 7.05701 21.4015 7.11882 20.6859 7.06352C17.3841 6.80653 14.3947 8.98927 13.627 12.2064C13.3537 13.345 12.7942 14.3697 12.0298 15.2024C11.2621 16.0319 10.2829 16.6728 9.17042 17.0338C7.59599 17.5478 6.33384 18.5953 5.5206 19.9225C4.71062 21.2497 4.3593 22.8534 4.61953 24.4896C4.98712 26.7992 4.13159 29.1348 2.35222 30.654C0.387434 32.3357 -0.390023 34.9446 0.189003 37.3453C0.351651 38.0154 0.618394 38.6693 0.995737 39.2841C1.37308 39.8956 1.63982 40.5527 1.80247 41.2261C2.17331 42.7615 1.99765 44.401 1.26248 45.8485C-0.230628 48.799 0.637911 52.3967 3.3151 54.342C5.20832 55.7115 6.25577 57.9723 6.0736 60.3047C5.81987 63.5999 7.99935 66.5959 11.2165 67.3636C13.4936 67.9036 15.3218 69.5919 16.0504 71.8136C17.0751 74.9593 20.237 76.8883 23.503 76.371C24.6578 76.1856 25.8223 76.3092 26.8828 76.6963C27.9432 77.0899 28.9126 77.747 29.6706 78.6351C31.824 81.1464 35.4803 81.7254 38.3007 79.9916C38.9122 79.6142 39.5661 79.3475 40.2427 79.1849C41.7781 78.814 43.4143 78.9897 44.8651 79.7248C46.3387 80.473 47.975 80.6292 49.4876 80.2648C51.0002 79.9005 52.3827 79.0157 53.3554 77.6755C54.3117 76.358 55.6877 75.457 57.2231 75.0861C57.903 74.9235 58.6056 74.8617 59.3213 74.917C60.0402 74.9723 60.7493 74.9105 61.4194 74.7478C63.8201 74.1688 65.7816 72.2853 66.3834 69.7708C66.9267 67.497 68.6117 65.6656 70.84 64.9401C72.4144 64.4262 73.6798 63.382 74.4866 62.0515C75.2965 60.7243 75.6511 59.1174 75.3909 57.4844C75.0201 55.1748 75.8788 52.8391 77.6549 51.32C80.1662 49.1666 80.742 45.507 79.0114 42.6899L79.0049 42.7029ZM48.001 74.12C29.7356 78.531 11.2913 67.2628 6.88034 49.0006C2.46933 30.7353 13.7376 12.291 32.0029 7.88001C50.265 3.469 68.7126 14.7372 73.1236 33.0026C77.5346 51.2647 66.2598 69.709 48.001 74.12Z" fill="#1B49F0" fill-opacity="0.07"/>
<path d="M68.6811 34.0732C64.8625 18.2585 48.8854 8.50067 33.0719 12.3196C17.2584 16.1385 7.5014 32.1138 11.32 47.9286C15.1386 63.7403 31.1126 73.5012 46.9262 69.6792C62.7366 65.8603 72.4997 49.885 68.6811 34.0732ZM34.7344 18.2009H34.7375H34.7344Z" fill="#1B49F0" fill-opacity="0.07"/>
<path d="M51.858 30.498C51.6342 30.2837 51.3347 30.1638 51.0229 30.1638C50.7111 30.1638 50.4116 30.2837 50.1878 30.498L37.719 42.9271C37.6096 43.036 37.4797 43.1224 37.3363 43.1814C37.193 43.2404 37.0392 43.2707 36.8839 43.2707C36.7286 43.2707 36.5749 43.2404 36.4316 43.1814C36.2882 43.1224 36.1581 43.036 36.0487 42.9271L29.885 36.7939C29.7757 36.685 29.6455 36.5986 29.5022 36.5396C29.3589 36.4806 29.205 36.4503 29.0497 36.4503C28.8945 36.4503 28.7408 36.4806 28.5974 36.5396C28.4541 36.5986 28.324 36.685 28.2146 36.7939L26.5678 38.4201C26.3508 38.6412 26.2295 38.937 26.2295 39.2448C26.2295 39.5527 26.3508 39.8485 26.5678 40.0696L35.9781 49.5018C36.2019 49.7161 36.5016 49.836 36.8134 49.836C37.1251 49.836 37.4246 49.7161 37.6485 49.5018L53.4343 33.7737C53.6499 33.5566 53.7705 33.2646 53.7705 32.9606C53.7705 32.6565 53.6499 32.3646 53.4343 32.1475L51.858 30.498Z" fill="white"/>
</g>
<defs>
<clipPath id="clip0_170_2890">
<rect width="80" height="80" fill="white"/>
</clipPath>
</defs>
</svg>
