<svg width="16" height="16" viewBox="0 0 16 16" fill="none" xmlns="http://www.w3.org/2000/svg">
<path d="M12.4042 4.43773H3.63674V4.29224C3.63674 3.93811 3.92316 3.64712 4.27779 3.64712H11.5722C12.025 3.64712 12.3905 3.27926 12.3905 2.82356C12.3905 2.36786 12.025 2 11.5722 2H4.27779C3.02023 2 2 3.0267 2 4.29224V11.3941C2 12.278 2.71471 13 3.59582 13H12.4042C13.2826 13 14 12.2808 14 11.3941V6.04093C14 5.15698 13.2853 4.43499 12.4042 4.43499V4.43773ZM11.5913 9.69753C11.0539 9.69753 10.6174 9.2583 10.6174 8.71749C10.6174 8.17669 11.0539 7.73746 11.5913 7.73746C12.1287 7.73746 12.5651 8.17669 12.5651 8.71749C12.5651 9.2583 12.1287 9.69753 11.5913 9.69753Z" fill="#999999"/>
</svg>
