<svg width="24" height="24" viewBox="0 0 24 24" fill="none" xmlns="http://www.w3.org/2000/svg">
<path d="M19.3494 7.19354H5.57201V6.97309C5.57201 6.43653 6.02212 5.99563 6.57939 5.99563H18.042C18.7536 5.99563 19.328 5.43827 19.328 4.74782C19.328 4.05736 18.7536 3.5 18.042 3.5H6.57939C4.60322 3.5 3 5.05561 3 6.97309V17.7334C3 19.0727 4.12311 20.1667 5.50771 20.1667H19.3494C20.7297 20.1667 21.8571 19.0769 21.8571 17.7334V9.62262C21.8571 8.2833 20.734 7.18938 19.3494 7.18938V7.19354ZM18.072 15.1629C17.2275 15.1629 16.5416 14.4974 16.5416 13.678C16.5416 12.8586 17.2275 12.1931 18.072 12.1931C18.9165 12.1931 19.6023 12.8586 19.6023 13.678C19.6023 14.4974 18.9165 15.1629 18.072 15.1629Z" fill="#1D1E22"/>
</svg>
