<svg width="32" height="32" viewBox="0 0 32 32" fill="none" xmlns="http://www.w3.org/2000/svg">
<path d="M25.7992 9.59146H7.42935V9.29753C7.42935 8.58212 8.02949 7.99426 8.77251 7.99426H24.056C25.0048 7.99426 25.7707 7.25111 25.7707 6.3305C25.7707 5.40989 25.0048 4.66675 24.056 4.66675H8.77251C6.13763 4.66675 4 6.7409 4 9.29753V23.6446C4 25.4304 5.49748 26.889 7.34362 26.889H25.7992C27.6397 26.889 29.1429 25.436 29.1429 23.6446V12.8302C29.1429 11.0445 27.6454 9.58592 25.7992 9.58592V9.59146ZM24.096 20.2173C22.97 20.2173 22.0555 19.33 22.0555 18.2374C22.0555 17.1449 22.97 16.2576 24.096 16.2576C25.222 16.2576 26.1365 17.1449 26.1365 18.2374C26.1365 19.33 25.222 20.2173 24.096 20.2173Z" fill="white"/>
</svg>
