<svg width="27" height="25" viewBox="0 0 27 25" fill="none" xmlns="http://www.w3.org/2000/svg">
<path d="M23.4094 5.5403H3.68266V5.20963C3.68266 4.40479 4.32712 3.74345 5.12503 3.74345H21.5374C22.5563 3.74345 23.3787 2.90741 23.3787 1.87172C23.3787 0.836037 22.5563 0 21.5374 0H5.12503C2.29552 0 0 2.33342 0 5.20963V21.3501C0 23.3591 1.60809 25 3.59059 25H23.4094C25.3858 25 27 23.3654 27 21.3501V9.18393C27 7.17494 25.3919 5.53407 23.4094 5.53407V5.5403ZM21.5804 17.4944C20.3712 17.4944 19.3892 16.4961 19.3892 15.267C19.3892 14.0379 20.3712 13.0397 21.5804 13.0397C22.7895 13.0397 23.7715 14.0379 23.7715 15.267C23.7715 16.4961 22.7895 17.4944 21.5804 17.4944Z" fill="#1B49F0"/>
</svg>
