<svg width="261" height="36" viewBox="0 0 261 36" fill="none" xmlns="http://www.w3.org/2000/svg">
<path d="M35.9188 12.8981L27.8436 15.3092L21.9946 0L12.3516 0.0907142L0 32.3945L3.88325 32.447L22.7665 21.7762L26.9126 32.447H34.4041L28.9772 18.2431L35.9164 14.3161V12.8981H35.9188ZM12.3323 19.938L17.0791 7.81097H17.2961L21.0081 17.3479L12.3299 19.938H12.3323Z" fill="#1C1C1C"/>
<path d="M43.9668 6.45758V32.4496L66.3377 32.4209L67.7607 26.3646L51.3956 26.3503V6.45758H43.9668Z" fill="#1C1C1C"/>
<path d="M70.1543 6.46429V12.5493H79.5682V31.7664H86.9029V12.5493H94.8334L96.1311 6.52397L70.1543 6.46429Z" fill="#1C1C1C"/>
<path d="M101.895 6.47173L113.643 31.6187H119.159L130.992 6.47173H122.847L116.443 20.2221L109.963 6.45502L101.895 6.47173Z" fill="#1C1C1C"/>
<path d="M139.793 6.4718V31.6211H162.2L160.905 26.3669H147.258V21.5542H157.4V16.5315H147.258V11.7046H160.073L161.382 6.4718H139.793Z" fill="#1C1C1C"/>
<path d="M238.594 6.4718V31.6211H261.001L259.706 26.3669H246.056V21.5542H256.201V16.5315H246.056V11.7046H258.873L260.183 6.4718H238.594Z" fill="#1C1C1C"/>
<path d="M190.758 21.6952C190.758 21.6952 196.53 19.8904 196.53 14.1014C196.53 6.14247 187.9 6.50771 187.9 6.50771L172.359 6.45758V31.6212H179.827V22.5044H182.767L188.286 31.6212L198.869 33.7029L190.758 21.6952ZM184.354 17.7348H179.827V11.6975L184.354 11.7691C184.354 11.7691 188.881 11.5089 188.881 14.7985C188.881 18.0881 184.354 17.7372 184.354 17.7372V17.7348Z" fill="#1C1C1C"/>
<path d="M226.94 13.9795V8.36474C226.94 8.36474 222.228 5.76984 215.942 5.76984C210.879 5.76984 205.028 7.56264 205.028 13.3063C205.028 14.7267 205.245 19.026 213.183 21.3942C217.688 22.7382 220.235 23.1941 220.235 25.0299C220.235 25.9418 219.526 26.8012 216.393 26.8012C212.968 26.8012 207.471 25.0394 204.789 23.822L206.205 29.7112C206.205 29.7112 210.592 32.2894 217.961 32.2894C225.329 32.2894 228.243 28.2693 228.243 24.7482C228.243 19.8019 224.413 17.8301 220.643 16.6818C215.657 15.1635 212.97 14.7505 212.97 12.8718C212.97 11.8119 214.439 11.2461 216.217 11.2461C221.099 11.2461 226.94 13.9795 226.94 13.9795Z" fill="#1C1C1C"/>
</svg>
