<svg width="232" height="32" viewBox="0 0 232 32" fill="none" xmlns="http://www.w3.org/2000/svg">
<path d="M31.9279 11.465L24.7499 13.6082L19.5508 0L10.9792 0.0806348L0 28.7951L3.45178 28.8418L20.2368 19.3566L23.9223 28.8418H30.5815L25.7575 16.2161L31.9257 12.7255V11.465H31.9279ZM10.9621 17.7227L15.1814 6.94309H15.3743L18.6739 15.4204L10.9599 17.7227H10.9621Z" fill="white"/>
<path d="M39.0809 5.74011V28.8441L58.9662 28.8187L60.2311 23.4352L45.6843 23.4225V5.74011H39.0809Z" fill="white"/>
<path d="M62.3593 5.74597V11.1549H70.7271V28.2367H77.2469V11.1549H84.2963L85.4497 5.79902L62.3593 5.74597Z" fill="white"/>
<path d="M90.5726 5.75265L101.016 28.1055H105.919L116.437 5.75265H109.197L103.505 17.9752L97.7442 5.73779L90.5726 5.75265Z" fill="white"/>
<path d="M124.26 5.75269V28.1076H144.178L143.026 23.4372H130.896V19.1593H139.911V14.6947H130.896V10.404H142.287L143.451 5.75269H124.26Z" fill="white"/>
<path d="M212.083 5.75269V28.1076H232L230.849 23.4372H218.716V19.1593H227.733V14.6947H218.716V10.404H230.109L231.273 5.75269H212.083Z" fill="white"/>
<path d="M169.563 19.2846C169.563 19.2846 174.693 17.6804 174.693 12.5347C174.693 5.46001 167.022 5.78467 167.022 5.78467L153.209 5.74011V28.1078H159.847V20.004H162.46L167.365 28.1078L176.773 29.9581L169.563 19.2846ZM163.871 15.7643H159.847V10.3978L163.871 10.4615C163.871 10.4615 167.895 10.2302 167.895 13.1543C167.895 16.0783 163.871 15.7664 163.871 15.7664V15.7643Z" fill="white"/>
<path d="M201.724 12.4262V7.43537C201.724 7.43537 197.535 5.12878 191.948 5.12878C187.448 5.12878 182.246 6.72238 182.246 11.8278C182.246 13.0904 182.439 16.9121 189.495 19.0171C193.5 20.2117 195.764 20.617 195.764 22.2488C195.764 23.0594 195.134 23.8233 192.349 23.8233C189.304 23.8233 184.418 22.2573 182.034 21.1751L183.293 26.41C183.293 26.41 187.192 28.7017 193.742 28.7017C200.292 28.7017 202.882 25.1283 202.882 21.9984C202.882 17.6017 199.477 15.849 196.126 14.8283C191.695 13.4787 189.306 13.1116 189.306 11.4416C189.306 10.4995 190.612 9.99658 192.192 9.99658C196.532 9.99658 201.724 12.4262 201.724 12.4262Z" fill="white"/>
</svg>
