<svg width="64" height="64" viewBox="0 0 64 64" fill="none" xmlns="http://www.w3.org/2000/svg">
<path d="M50.4467 16.4245C46.9935 14.9645 43.347 13.9262 39.6002 13.3361C39.5663 13.3296 39.5311 13.3335 39.4999 13.3472C39.4687 13.3609 39.4433 13.3836 39.4275 13.4119C38.9306 14.2383 38.4796 15.0873 38.0764 15.9557C34.0388 15.3905 29.9313 15.3905 25.8937 15.9557C25.4889 15.0845 25.0303 14.2352 24.5201 13.4119C24.5044 13.3836 24.4789 13.3609 24.4477 13.3472C24.4165 13.3335 24.3813 13.3296 24.3474 13.3361C20.6011 13.928 16.9548 14.9662 13.5009 16.4245C13.4849 16.4285 13.47 16.4354 13.4571 16.4449C13.4442 16.4544 13.4335 16.4662 13.4258 16.4797C6.52006 25.9587 4.62848 35.2034 5.55175 44.3377C5.55978 44.3841 5.58659 44.4259 5.62681 44.4549C9.64661 47.199 14.1441 49.2969 18.9279 50.6594C18.9616 50.6689 18.9976 50.6687 19.0312 50.6588C19.0647 50.6489 19.0942 50.6299 19.1156 50.6042C20.1496 49.3119 21.0636 47.9421 21.8479 46.5093C21.8589 46.4901 21.8654 46.4689 21.8668 46.4472C21.8682 46.4255 21.8645 46.4038 21.8559 46.3835C21.8474 46.3633 21.8342 46.3449 21.8173 46.3298C21.8003 46.3146 21.7801 46.3029 21.7578 46.2956C20.3232 45.7871 18.933 45.1786 17.5993 44.4756C17.5761 44.461 17.5571 44.4415 17.544 44.4187C17.5308 44.3959 17.524 44.3704 17.524 44.3446C17.524 44.3188 17.5308 44.2934 17.544 44.2705C17.5571 44.2477 17.5761 44.2282 17.5993 44.2136L18.425 43.6208C18.4503 43.6044 18.4804 43.5957 18.5113 43.5957C18.5422 43.5957 18.5724 43.6044 18.5976 43.6208C22.7881 45.4265 27.3601 46.3626 31.9888 46.3626C36.6176 46.3626 41.1896 45.4265 45.38 43.6208C45.4057 43.6053 45.4357 43.5971 45.4663 43.5971C45.497 43.5971 45.527 43.6053 45.5527 43.6208C45.8229 43.8276 46.1006 44.0275 46.3783 44.2205C46.4016 44.2351 46.4206 44.2546 46.4337 44.2774C46.4468 44.3003 46.4537 44.3257 46.4537 44.3515C46.4537 44.3773 46.4468 44.4027 46.4337 44.4256C46.4206 44.4484 46.4016 44.4679 46.3783 44.4825C45.05 45.1929 43.6589 45.7994 42.2199 46.2956C42.1981 46.3045 42.1784 46.3173 42.1621 46.3333C42.1457 46.3493 42.133 46.368 42.1246 46.3886C42.1162 46.4091 42.1124 46.4309 42.1133 46.4529C42.1141 46.4748 42.1198 46.4963 42.1298 46.5162C42.9316 47.9298 43.8421 49.289 44.8546 50.5835C44.876 50.6092 44.9055 50.6283 44.939 50.6381C44.9725 50.648 45.0086 50.6482 45.0422 50.6387C49.8353 49.2815 54.3412 47.1832 58.3659 44.4342C58.3869 44.4215 58.4042 44.4041 58.416 44.3836C58.4278 44.3631 58.4338 44.3402 58.4334 44.317C59.533 34.4699 56.7234 24.5894 50.5218 16.4935C50.5159 16.4775 50.506 16.4629 50.493 16.451C50.48 16.439 50.4642 16.43 50.4467 16.4245ZM23.1464 38.7813C20.5192 38.7813 18.3574 36.5615 18.3574 33.8453C18.3574 31.1291 20.4742 28.9024 23.1464 28.9024C25.8187 28.9024 27.973 31.136 27.9354 33.8384C27.8979 36.5408 25.8112 38.7813 23.1464 38.7813ZM40.8537 38.7813C38.2265 38.7813 36.0647 36.5615 36.0647 33.8453C36.0647 31.1291 38.1815 28.9024 40.8537 28.9024C43.526 28.9024 45.6803 31.136 45.6427 33.8384C45.6052 36.5408 43.541 38.7813 40.8537 38.7813Z" fill="#5865F2"/>
</svg>
