<svg width="24" height="24" viewBox="0 0 24 24" fill="none" xmlns="http://www.w3.org/2000/svg">
<path d="M18.9175 6.15932C17.6225 5.61182 16.2551 5.22246 14.85 5.00115C14.8373 4.99871 14.8241 5.00017 14.8124 5.00531C14.8007 5.01045 14.7912 5.01898 14.7853 5.02959C14.5989 5.33948 14.4298 5.65787 14.2786 5.98352C12.7645 5.77155 11.2242 5.77155 9.71009 5.98352C9.55827 5.65681 9.38628 5.33831 9.19497 5.02959C9.18907 5.01898 9.17954 5.01045 9.16784 5.00531C9.15614 5.00017 9.14292 4.99871 9.13023 5.00115C7.72534 5.22312 6.35799 5.61246 5.06277 6.15932C5.05678 6.1608 5.05119 6.1634 5.04635 6.16696C5.0415 6.17052 5.03751 6.17496 5.03462 6.18C2.44496 9.73464 1.73562 13.2014 2.08184 16.6268C2.08486 16.6442 2.09491 16.6598 2.10999 16.6707C3.61742 17.6997 5.30398 18.4864 7.09791 18.9974C7.11054 19.0009 7.12404 19.0009 7.13662 18.9972C7.1492 18.9935 7.16025 18.9863 7.16828 18.9767C7.55604 18.4921 7.89878 17.9784 8.19289 17.4411C8.19704 17.4339 8.19946 17.426 8.19998 17.4178C8.2005 17.4097 8.19911 17.4016 8.19591 17.394C8.19271 17.3864 8.18776 17.3795 8.18141 17.3738C8.17506 17.3681 8.16746 17.3637 8.15911 17.361C7.62113 17.1703 7.0998 16.9421 6.59968 16.6785C6.59097 16.673 6.58385 16.6657 6.57892 16.6571C6.574 16.6486 6.57142 16.639 6.57142 16.6294C6.57142 16.6197 6.574 16.6101 6.57892 16.6016C6.58385 16.593 6.59097 16.5857 6.59968 16.5802L6.90931 16.3579C6.91879 16.3518 6.9301 16.3485 6.94168 16.3485C6.95327 16.3485 6.96458 16.3518 6.97406 16.3579C8.54547 17.035 10.26 17.3861 11.9957 17.3861C13.7315 17.3861 15.446 17.035 17.0174 16.3579C17.0271 16.3521 17.0383 16.349 17.0498 16.349C17.0613 16.349 17.0726 16.3521 17.0822 16.3579C17.1835 16.4355 17.2877 16.5104 17.3918 16.5828C17.4005 16.5883 17.4077 16.5956 17.4126 16.6042C17.4175 16.6127 17.4201 16.6223 17.4201 16.6319C17.4201 16.6416 17.4175 16.6512 17.4126 16.6597C17.4077 16.6683 17.4005 16.6756 17.3918 16.6811C16.8937 16.9474 16.372 17.1749 15.8324 17.361C15.8242 17.3643 15.8168 17.3691 15.8107 17.3751C15.8046 17.3811 15.7998 17.3881 15.7967 17.3958C15.7935 17.4035 15.7921 17.4117 15.7924 17.4199C15.7927 17.4282 15.7949 17.4362 15.7986 17.4437C16.0993 17.9738 16.4407 18.4835 16.8204 18.969C16.8284 18.9786 16.8395 18.9857 16.8521 18.9894C16.8646 18.9931 16.8781 18.9932 16.8908 18.9896C18.6882 18.4807 20.3779 17.6938 21.8871 16.663C21.895 16.6582 21.9015 16.6516 21.9059 16.644C21.9104 16.6363 21.9126 16.6277 21.9125 16.619C22.3248 12.9264 21.2712 9.22115 18.9456 6.18517C18.9434 6.17917 18.9397 6.17371 18.9348 6.16923C18.9299 6.16475 18.924 6.16136 18.9175 6.15932ZM8.67985 14.5431C7.69466 14.5431 6.88398 13.7107 6.88398 12.6921C6.88398 11.6735 7.67777 10.8385 8.67985 10.8385C9.68194 10.8385 10.4898 11.6761 10.4757 12.6895C10.4617 13.7029 9.67913 14.5431 8.67985 14.5431ZM15.3201 14.5431C14.3349 14.5431 13.5242 13.7107 13.5242 12.6921C13.5242 11.6735 14.318 10.8385 15.3201 10.8385C16.3222 10.8385 17.13 11.6761 17.116 12.6895C17.1019 13.7029 16.3278 14.5431 15.3201 14.5431Z" fill="#1C1C1C"/>
</svg>
