<svg width="20" height="20" viewBox="0 0 20 20" fill="none" xmlns="http://www.w3.org/2000/svg">
<circle cx="10" cy="10" r="10" fill="white"/>
<path d="M7.47025 7.68304H5.27466V15H7.47025V7.68304Z" fill="white"/>
<path d="M6.37176 6.49353C7.12937 6.49353 7.74353 5.87937 7.74353 5.12176C7.74353 4.36416 7.12937 3.75 6.37176 3.75C5.61416 3.75 5 4.36416 5 5.12176C5 5.87937 5.61416 6.49353 6.37176 6.49353Z" fill="white"/>
<path d="M13.4226 7.59198C12.2677 7.59198 11.3387 8.16943 11.0243 8.7379H11.0025V7.68309H8.93262V14.9974H11.1308V11.4866C11.1308 10.2598 11.6569 9.51296 12.7605 9.51296C13.669 9.51296 14.0578 10.3663 14.0578 11.3403V15.0013H16.2521V10.9399C16.2495 8.76613 15.6336 7.59198 13.4226 7.59198Z" fill="white"/>
<path d="M7.46953 15.0011H5.27522V7.68674H7.46953V15.0011ZM6.37238 6.49719C6.1007 6.49745 5.83506 6.4171 5.60907 6.26633C5.38308 6.11555 5.20689 5.90112 5.10281 5.65018C4.99873 5.39924 4.97143 5.12306 5.02437 4.85659C5.07731 4.59013 5.2081 4.34536 5.4002 4.15326C5.5923 3.96115 5.83708 3.83036 6.10354 3.77742C6.37001 3.72448 6.64618 3.75178 6.89713 3.85586C7.14807 3.95994 7.3625 4.13613 7.51328 4.36212C7.66405 4.58811 7.74439 4.85376 7.74414 5.12543C7.74414 5.48924 7.59961 5.83816 7.34236 6.09541C7.0851 6.35267 6.73619 6.49719 6.37238 6.49719V6.49719ZM16.2532 15.0037H14.0589V11.3401C14.0589 10.3661 13.6739 9.51276 12.7615 9.51276C11.658 9.51276 11.1318 10.2596 11.1318 11.4864V15.0011H8.93368V7.68674H11.0035V8.74155H11.0266C11.341 8.17308 12.2726 7.59563 13.425 7.59563C15.6359 7.59563 16.248 8.76978 16.248 10.9436L16.2532 15.0037Z" fill="#2C2C2C"/>
</svg>
