<svg width="20" height="20" viewBox="0 0 20 20" fill="none" xmlns="http://www.w3.org/2000/svg">
<circle cx="10" cy="10" r="10" fill="#00D7F4"/>
<path d="M7.47025 7.68311H5.27466V15H7.47025V7.68311Z" fill="white"/>
<path d="M6.37176 6.49353C7.12937 6.49353 7.74353 5.87937 7.74353 5.12176C7.74353 4.36416 7.12937 3.75 6.37176 3.75C5.61416 3.75 5 4.36416 5 5.12176C5 5.87937 5.61416 6.49353 6.37176 6.49353Z" fill="white"/>
<path d="M13.4231 7.59204C12.2682 7.59204 11.3391 8.16949 11.0248 8.73796H11.0029V7.68315H8.93311V14.9975H11.1313V11.4866C11.1313 10.2599 11.6574 9.51302 12.761 9.51302C13.6695 9.51302 14.0583 10.3664 14.0583 11.3403V15.0014H16.2526V10.94C16.25 8.76619 15.6341 7.59204 13.4231 7.59204Z" fill="white"/>
<path d="M7.46928 15.0012H5.27498V7.68686H7.46928V15.0012ZM6.37213 6.49731C6.10046 6.49757 5.83482 6.41722 5.60883 6.26645C5.38283 6.11567 5.20665 5.90125 5.10257 5.6503C4.99848 5.39936 4.97118 5.12318 5.02412 4.85672C5.07706 4.59025 5.20786 4.34548 5.39996 4.15338C5.59206 3.96128 5.83683 3.83048 6.1033 3.77754C6.36976 3.7246 6.64594 3.7519 6.89688 3.85598C7.14783 3.96007 7.36226 4.13625 7.51303 4.36224C7.66381 4.58824 7.74415 4.85388 7.7439 5.12555C7.7439 5.48936 7.59937 5.83828 7.34211 6.09553C7.08486 6.35279 6.73595 6.49731 6.37213 6.49731ZM16.2529 15.0038H14.0586V11.3402C14.0586 10.3662 13.6737 9.51288 12.7613 9.51288C11.6577 9.51288 11.1316 10.2597 11.1316 11.4865V15.0012H8.93344V7.68686H11.0033V8.74167H11.0264C11.3408 8.1732 12.2724 7.59575 13.4247 7.59575C15.6357 7.59575 16.2478 8.7699 16.2478 10.9437L16.2529 15.0038Z" fill="#1C1C1C"/>
</svg>
