<svg width="28" height="28" viewBox="0 0 28 28" fill="none" xmlns="http://www.w3.org/2000/svg">
<path d="M9.88194 23.3275C18.2469 23.3275 22.8216 16.3713 22.8216 10.339C22.8216 10.1428 22.8177 9.94787 22.8099 9.75426C23.6993 9.10792 24.4672 8.30807 25.0778 7.39201C24.248 7.76103 23.3676 8.00281 22.4662 8.10926C23.416 7.53953 24.1269 6.64239 24.4662 5.58524C23.5735 6.11636 22.597 6.49075 21.5789 6.6923C21.1532 6.23664 20.6389 5.87352 20.0677 5.62544C19.4966 5.37735 18.8808 5.24957 18.2585 5.25C17.0523 5.25 15.8954 5.73086 15.0422 6.58685C14.1891 7.44284 13.7096 8.60388 13.7091 9.81469C13.7087 10.165 13.7484 10.5143 13.8275 10.8555C12.0189 10.7637 10.2497 10.2914 8.63474 9.4691C7.01974 8.64679 5.59498 7.49289 4.45289 6.08225C4.04907 6.77877 3.83667 7.5704 3.83737 8.37628C3.83679 9.12825 4.02138 9.8687 4.3747 10.5318C4.72803 11.1949 5.23914 11.76 5.86258 12.1769C5.14014 12.1554 4.4335 11.9595 3.80242 11.6059C3.80242 11.6254 3.80242 11.6449 3.80242 11.6643C3.80126 12.7195 4.16403 13.7426 4.82911 14.5598C5.49419 15.377 6.42056 15.9378 7.4509 16.1472C7.06052 16.2542 6.65755 16.308 6.25286 16.307C5.9672 16.3039 5.68247 16.2738 5.40239 16.2173C5.69236 17.1248 6.25789 17.9185 7.01975 18.4871C7.78161 19.0558 8.70163 19.3709 9.65087 19.3884C8.03915 20.6557 6.04973 21.3422 4.00241 21.3375C3.63965 21.3378 3.2772 21.3163 2.91699 21.2732C4.99638 22.614 7.41628 23.3258 9.88776 23.3236" fill="#00D7F4"/>
</svg>
