<svg width="28" height="28" viewBox="0 0 28 28" fill="none" xmlns="http://www.w3.org/2000/svg">
<path d="M11.334 6.40162C13.0275 6.40162 14.6457 6.38557 16.2615 6.41653C16.5654 6.42227 16.7301 6.38442 16.8252 6.09881C16.8785 5.93709 16.9841 5.79256 17.0456 5.63313C17.1767 5.29018 17.3762 5.17548 17.7566 5.29706C19.0743 5.71916 20.4071 6.10111 21.7213 6.53238C21.9533 6.60808 22.1841 6.81684 22.3221 7.02445C24.8207 10.7889 25.9806 14.9078 25.5932 19.4167C25.5723 19.6587 25.4099 19.9638 25.215 20.1049C23.6468 21.2416 21.9196 22.0789 20.0777 22.6937C19.7703 22.7957 19.58 22.7774 19.4084 22.4849C19.0813 21.9275 18.7275 21.3849 18.3749 20.8217C19.0558 20.4914 19.674 20.192 20.3015 19.8881C20.1125 19.5428 19.9083 19.4706 19.5708 19.6128C15.8624 21.1785 12.1495 21.1704 8.43071 19.6312C8.237 19.5509 7.98065 19.6208 7.7533 19.6208L7.70691 19.8732C8.31356 20.1714 8.92136 20.4708 9.62661 20.8183C9.24731 21.4205 8.87845 22.0318 8.47363 22.6203C8.41215 22.7097 8.16508 22.7464 8.03517 22.7051C6.12359 22.1098 4.3512 21.2324 2.73425 20.0636C2.56258 19.9386 2.41758 19.6713 2.40018 19.458C2.03596 14.9571 3.15762 10.8279 5.64801 7.05542C5.79533 6.83175 6.04007 6.60694 6.2883 6.52435C7.56423 6.09767 8.86105 5.72719 10.1416 5.31312C10.5778 5.17204 10.8283 5.27985 10.9837 5.7031C11.0754 5.952 11.2215 6.18025 11.334 6.40162ZM10.1045 12.5736C8.94804 12.5863 8.04677 13.6128 8.05721 14.9067C8.06765 16.1982 8.99096 17.2007 10.1579 17.1869C11.3027 17.1731 12.2318 16.1225 12.2226 14.8516C12.2133 13.5865 11.2598 12.5599 10.1045 12.5736ZM19.9559 14.9078C19.9872 13.6702 19.0871 12.6149 17.9666 12.5736C16.773 12.5301 15.8253 13.5234 15.801 14.8482C15.7766 16.1225 16.693 17.1697 17.8448 17.1857C19.0024 17.2018 19.9234 16.2074 19.9559 14.9078Z" fill="white"/>
</svg>
