<svg width="28" height="28" viewBox="0 0 28 28" fill="none" xmlns="http://www.w3.org/2000/svg">
<path d="M15.64 14.2917C15.6439 15.246 15.4597 16.1917 15.098 17.0747C14.7364 17.9578 14.2043 18.7609 13.5323 19.4381C12.8602 20.1152 12.0613 20.6533 11.1813 21.0214C10.3013 21.3895 9.3573 21.5804 8.40347 21.5833C6.47769 21.5755 4.63382 20.8031 3.27692 19.4359C1.92003 18.0687 1.16115 16.2184 1.16703 14.2917C1.16115 12.3649 1.92003 10.5147 3.27692 9.14744C4.63382 7.78019 6.47769 7.00781 8.40347 7C9.3573 7.0029 10.3013 7.19386 11.1813 7.56196C12.0613 7.93006 12.8602 8.46808 13.5323 9.14528C14.2043 9.82247 14.7364 10.6255 15.098 11.5086C15.4597 12.3916 15.6439 13.3374 15.64 14.2917Z" fill="white"/>
<path d="M23.6134 14.2918C23.6134 18.0814 21.9922 21.1558 19.9951 21.1558C17.9981 21.1558 16.377 18.0814 16.377 14.2918C16.377 10.5022 17.9981 7.42773 19.9951 7.42773C21.9922 7.42773 23.6134 10.5022 23.6134 14.2918Z" fill="white"/>
<path d="M26.8339 14.2915C26.8339 17.6903 26.2591 20.4403 25.559 20.4403C24.859 20.4403 24.2842 17.6903 24.2842 14.2915C24.2842 10.8926 24.859 8.14258 25.559 8.14258C26.2591 8.14258 26.8339 10.8926 26.8339 14.2915Z" fill="white"/>
</svg>
