<svg width="28" height="28" viewBox="0 0 28 28" fill="none" xmlns="http://www.w3.org/2000/svg">
<path d="M19.401 4.0835H8.59841C7.40085 4.0835 6.25235 4.5592 5.40555 5.406C4.55875 6.2528 4.08301 7.40134 4.08301 8.5989V19.408C4.08301 20.0007 4.19988 20.5875 4.42688 21.135C4.65388 21.6825 4.98658 22.1798 5.40596 22.5986C5.82534 23.0173 6.32315 23.3493 6.87094 23.5755C7.41873 23.8017 8.00575 23.9177 8.59841 23.9168H19.401C19.9936 23.9177 20.5806 23.8017 21.1284 23.5755C21.6762 23.3493 22.1741 23.0173 22.5934 22.5986C23.0128 22.1798 23.3455 21.6825 23.5725 21.135C23.7995 20.5875 23.9163 20.0007 23.9163 19.408V8.5989C23.9163 7.40134 23.4406 6.2528 22.5938 5.406C21.747 4.5592 20.5985 4.0835 19.401 4.0835ZM13.8609 19.018C12.5844 19.018 11.3602 18.5109 10.4576 17.6083C9.55503 16.7057 9.04796 15.4816 9.04796 14.2051C9.04796 12.9286 9.55503 11.7045 10.4576 10.8019C11.3602 9.89927 12.5844 9.3922 13.8609 9.3922C15.1373 9.3922 16.3615 9.89927 17.2641 10.8019C18.1667 11.7045 18.6737 12.9286 18.6737 14.2051C18.6737 15.4816 18.1667 16.7057 17.2641 17.6083C16.3615 18.5109 15.1373 19.018 13.8609 19.018V19.018ZM18.8324 10.331C18.6848 10.331 18.5387 10.3019 18.4023 10.2454C18.2659 10.1889 18.142 10.1062 18.0377 10.0018C17.9333 9.89746 17.8506 9.77357 17.7941 9.63721C17.7376 9.50085 17.7085 9.3547 17.7085 9.20711C17.7102 8.91018 17.8294 8.62601 18.04 8.41667C18.2506 8.20733 18.5355 8.08982 18.8324 8.08983C18.9791 8.08983 19.1244 8.11874 19.26 8.17489C19.3955 8.23104 19.5187 8.31333 19.6224 8.41707C19.7262 8.52082 19.8085 8.64399 19.8647 8.77955C19.9208 8.9151 19.9497 9.06038 19.9497 9.20711C19.9497 9.50404 19.8322 9.7889 19.6228 9.99948C19.4135 10.2101 19.1293 10.3293 18.8324 10.331Z" fill="#00D7F4"/>
<path d="M13.8607 11.0845C13.0331 11.0845 12.2394 11.4133 11.6542 11.9985C11.069 12.5837 10.7402 13.3773 10.7402 14.2049C10.7402 14.6144 10.821 15.0199 10.9779 15.3981C11.1348 15.7763 11.3647 16.1198 11.6546 16.4091C11.9444 16.6983 12.2885 16.9275 12.667 17.0836C13.0456 17.2397 13.4512 17.3197 13.8607 17.3188C14.6871 17.3188 15.4798 16.9909 16.0648 16.4071C16.6498 15.8234 16.9794 15.0314 16.9811 14.2049C16.9811 13.3773 16.6524 12.5837 16.0672 11.9985C15.482 11.4133 14.6883 11.0845 13.8607 11.0845V11.0845Z" fill="#00D7F4"/>
</svg>
