<svg width="20" height="20" viewBox="0 0 20 20" fill="none" xmlns="http://www.w3.org/2000/svg">
<circle cx="10" cy="10" r="10" fill="#00D7F4"/>
<path d="M7.79997 16C13.0845 16 15.9745 11.7672 15.9745 8.0966C15.9745 7.97721 15.9721 7.85862 15.9672 7.74081C16.529 7.34751 17.0142 6.86081 17.3999 6.3034C16.8757 6.52794 16.3195 6.67506 15.75 6.73984C16.3501 6.39316 16.7992 5.84726 17.0135 5.20399C16.4495 5.52717 15.8327 5.75499 15.1894 5.87763C14.9205 5.60036 14.5956 5.37941 14.2348 5.22845C13.874 5.07749 13.485 4.99974 13.0918 5C12.3298 5 11.5989 5.2926 11.06 5.81346C10.521 6.33432 10.2181 7.04081 10.2177 7.77757C10.2175 7.99075 10.2426 8.20326 10.2926 8.41089C9.15 8.35507 8.03233 8.06765 7.01206 7.56729C5.99179 7.06692 5.09171 6.36478 4.3702 5.50641C4.11509 5.93024 3.9809 6.41194 3.98134 6.90232C3.98098 7.35988 4.09759 7.81044 4.3208 8.21392C4.54402 8.6174 4.86691 8.96129 5.26076 9.21499C4.80436 9.20187 4.35795 9.08268 3.95926 8.86749C3.95926 8.87935 3.95926 8.89121 3.95926 8.90307C3.95853 9.54516 4.18771 10.1677 4.60787 10.6649C5.02803 11.1622 5.61327 11.5035 6.26418 11.6308C6.01755 11.696 5.76298 11.7287 5.50732 11.7281C5.32686 11.7262 5.14698 11.7079 4.97004 11.6735C5.15323 12.2257 5.5105 12.7087 5.9918 13.0547C6.4731 13.4007 7.05431 13.5925 7.654 13.6031C6.6358 14.3743 5.37899 14.792 4.08561 14.7891C3.85644 14.7893 3.62746 14.7762 3.3999 14.75C4.71354 15.5659 6.2423 15.999 7.80365 15.9976" fill="#1C1C1C"/>
</svg>
