<svg width="20" height="20" viewBox="0 0 20 20" fill="none" xmlns="http://www.w3.org/2000/svg">
<circle cx="10" cy="10" r="10" fill="white"/>
<path d="M7.80046 16C13.085 16 15.975 11.7672 15.975 8.0966C15.975 7.97721 15.9725 7.85862 15.9676 7.74081C16.5295 7.34751 17.0146 6.86081 17.4004 6.3034C16.8761 6.52794 16.32 6.67506 15.7505 6.73984C16.3506 6.39316 16.7996 5.84726 17.014 5.20399C16.45 5.52717 15.8331 5.75499 15.1899 5.87763C14.921 5.60036 14.5961 5.37941 14.2353 5.22845C13.8745 5.07749 13.4855 4.99974 13.0923 5C12.3303 5 11.5994 5.2926 11.0605 5.81346C10.5215 6.33432 10.2186 7.04081 10.2182 7.77757C10.218 7.99075 10.2431 8.20326 10.2931 8.41089C9.15049 8.35507 8.03282 8.06765 7.01255 7.56729C5.99228 7.06692 5.09219 6.36478 4.37068 5.50641C4.11557 5.93024 3.98139 6.41194 3.98183 6.90232C3.98147 7.35988 4.09808 7.81044 4.32129 8.21392C4.5445 8.6174 4.86739 8.96129 5.26125 9.21499C4.80485 9.20187 4.35843 9.08268 3.95975 8.86749C3.95975 8.87935 3.95975 8.89121 3.95975 8.90307C3.95902 9.54516 4.1882 10.1677 4.60836 10.6649C5.02852 11.1622 5.61375 11.5035 6.26467 11.6308C6.01804 11.696 5.76347 11.7287 5.50781 11.7281C5.32735 11.7262 5.14746 11.7079 4.97053 11.6735C5.15372 12.2257 5.51099 12.7087 5.99229 13.0547C6.47359 13.4007 7.0548 13.5925 7.65449 13.6031C6.63629 14.3743 5.37948 14.792 4.0861 14.7891C3.85692 14.7893 3.62795 14.7762 3.40039 14.75C4.71403 15.5659 6.24279 15.999 7.80414 15.9976" fill="#2C2C2C"/>
</svg>
