<svg width="20" height="20" viewBox="0 0 20 20" fill="none" xmlns="http://www.w3.org/2000/svg">
<path d="M9.99938 20C15.5405 20 19.9988 15.5417 19.9988 10.0006C19.9988 4.45948 15.5417 0 9.99938 0C4.45702 0 0 4.45825 0 9.99938C0 15.5405 4.45825 19.9988 9.99938 19.9988V20Z" fill="#2775CA"/>
<path d="M12.7496 11.583C12.7496 10.1248 11.8747 9.62519 10.1249 9.416C8.87463 9.24988 8.62483 8.9164 8.62483 8.33312C8.62483 7.74985 9.04198 7.37453 9.87506 7.37453C10.6245 7.37453 11.0416 7.62433 11.2496 8.24945C11.2914 8.37496 11.4157 8.45741 11.5412 8.45741H12.2082C12.3743 8.45741 12.4998 8.33189 12.4998 8.16577V8.12393C12.3337 7.20718 11.5831 6.49839 10.6245 6.41594V5.41551C10.6245 5.24938 10.4989 5.12387 10.291 5.08203H9.66587C9.49974 5.08203 9.37423 5.20755 9.33239 5.41551V6.3741C8.08216 6.54022 7.29092 7.37453 7.29092 8.41557C7.29092 9.79009 8.124 10.3328 9.87383 10.5407C11.0404 10.7487 11.4157 10.9985 11.4157 11.6654C11.4157 12.3324 10.8324 12.7901 10.0412 12.7901C8.9583 12.7901 8.58299 12.3312 8.45747 11.7073C8.41564 11.5411 8.29135 11.4575 8.16584 11.4575H7.45704C7.29092 11.4575 7.16541 11.583 7.16541 11.7491V11.7909C7.33153 12.832 7.99848 13.5826 9.37423 13.7906V14.791C9.37423 14.9571 9.49974 15.0826 9.70771 15.1245H10.3328C10.4989 15.1245 10.6245 14.999 10.6663 14.791V13.7906C11.9165 13.5826 12.7496 12.7077 12.7496 11.5818V11.583Z" fill="white"/>
<path d="M7.87551 15.9576C4.62564 14.791 2.95826 11.1658 4.16665 7.9578C4.79177 6.20797 6.16628 4.87406 7.87551 4.24895C8.04163 4.16527 8.12531 4.04098 8.12531 3.83179V3.24852C8.12531 3.08239 8.04163 2.95688 7.87551 2.91504C7.83367 2.91504 7.74999 2.91504 7.70938 2.95688C3.7495 4.20834 1.58374 8.41679 2.83274 12.3742C3.58214 14.7073 5.37504 16.499 7.70815 17.2496C7.87427 17.3333 8.04163 17.2496 8.08347 17.0835C8.12531 17.0417 8.12531 16.9998 8.12531 16.9174V16.3341C8.12531 16.2086 7.99979 16.0425 7.87551 15.9588V15.9576ZM12.2919 2.95811C12.1258 2.87443 11.9584 2.95811 11.9166 3.12423C11.8748 3.16607 11.8748 3.20791 11.8748 3.29035V3.87363C11.8748 4.03975 12.0003 4.20711 12.1246 4.29078C15.3744 5.45734 17.0418 9.08252 15.8334 12.2905C15.2083 14.0404 13.8338 15.3743 12.1246 15.9994C11.9584 16.0831 11.8748 16.2074 11.8748 16.4165V16.9998C11.8748 17.1659 11.9584 17.2915 12.1246 17.3333C12.1664 17.3333 12.2501 17.3333 12.2907 17.2915C16.2493 16.0412 18.4151 11.8328 17.1661 7.87535C16.4167 5.50041 14.5832 3.70874 12.2907 2.95811H12.2919Z" fill="white"/>
</svg>
