<svg width="20" height="20" viewBox="0 0 20 20" fill="none" xmlns="http://www.w3.org/2000/svg">
<path d="M10 0C15.5223 0 20 4.47698 20 10C20 15.523 15.5223 20 10 20C4.4777 20 0 15.5237 0 10C0 4.47625 4.47698 0 10 0Z" fill="#53AE94"/>
<path d="M11.234 8.66764V7.17989H14.636V4.91357H5.37262V7.17989H8.77463V8.66619C6.00951 8.79343 3.93042 9.34067 3.93042 9.99707C3.93042 10.6535 6.01023 11.2007 8.77463 11.3287V16.0934H11.2347V11.3279C13.9948 11.2007 16.0695 10.6535 16.0695 9.99779C16.0695 9.34211 13.9948 8.79487 11.2347 8.66764H11.234ZM11.2347 10.9238V10.9224C11.1653 10.9267 10.8089 10.9484 10.0144 10.9484C9.37971 10.9484 8.93295 10.9303 8.77536 10.9224V10.9246C6.33265 10.8161 4.50947 10.3911 4.50947 9.88213C4.50947 9.3732 6.33337 8.94813 8.77536 8.83969V10.5009C8.93512 10.5118 9.39272 10.5393 10.0245 10.5393C10.7829 10.5393 11.1646 10.5074 11.2347 10.5009V8.83969C13.6723 8.94813 15.4919 9.37392 15.4919 9.8814C15.4919 10.3889 13.6716 10.8147 11.2347 10.9231" fill="white"/>
</svg>
